<?xml version="1.0" encoding="UTF-8" standalone="no"?>
<svg width="420px" height="281px" viewBox="0 0 420 281" version="1.1" xmlns="http://www.w3.org/2000/svg" xmlns:xlink="http://www.w3.org/1999/xlink" xmlns:sketch="http://www.bohemiancoding.com/sketch/ns">
    <!-- Generator: Sketch 3.1.1 (8761) - http://www.bohemiancoding.com/sketch -->
    <title>first-node</title>
    <desc>Created with Sketch.</desc>
    <defs></defs>
    <g id="Page-1" stroke="none" stroke-width="1" fill="none" fill-rule="evenodd" sketch:type="MSPage">
        <g id="first-node" sketch:type="MSLayerGroup">
            <rect id="Rectangle-55" fill="#699EC0" sketch:type="MSShapeGroup" x="0" y="0" width="420" height="280"></rect>
            <path d="M208,280.020508 L0,280 L0,0 L420,0 L420,280 L212,280 L212,158 L212,130.953747 C224.346455,130.18964 234,120.051513 234,107.5 C234,94.4444444 223.555556,84 210.5,84 C197.444444,84 187,94.4444444 187,107.5 C187,119.710577 196.136229,129.637096 208,130.870871 L208,280.020508 Z" id="Path-2" fill="#F3F3F3" sketch:type="MSShapeGroup"></path>
            <path d="M228,107.5 C228,97.7 220.3,90 210.5,90 C200.7,90 193,97.7 193,107.5 C193,117.3 200.7,125 210.5,125 C220.3,125 228,117.3 228,107.5 L228,107.5 Z" id="Shape" fill="#F2F2F2" sketch:type="MSShapeGroup"></path>
        </g>
    </g>
</svg>