<?xml version="1.0" encoding="UTF-8" standalone="no"?>
<svg width="140px" height="140px" viewBox="0 0 140 140" version="1.1" xmlns="http://www.w3.org/2000/svg" xmlns:xlink="http://www.w3.org/1999/xlink" xmlns:sketch="http://www.bohemiancoding.com/sketch/ns">
    <!-- Generator: Sketch 3.2.1 (9971) - http://www.bohemiancoding.com/sketch -->
    <title>jersey</title>
    <desc>Created with Sketch.</desc>
    <defs></defs>
    <g id="Page-1" stroke="none" stroke-width="1" fill="none" fill-rule="evenodd" sketch:type="MSPage">
        <g id="random" sketch:type="MSArtboardGroup" transform="translate(-25.000000, -63.000000)">
            <g id="jersey" sketch:type="MSLayerGroup" transform="translate(25.000000, 63.000000)">
                <circle id="Oval-1-2" fill="#FFFFFF" sketch:type="MSShapeGroup" cx="70" cy="70" r="70"></circle>
                <path d="M97.0581057,118.303408 C97.1335957,118.303777 97.1947925,118.244188 97.1947925,118.151972 L97.1947925,65.0155941 C91.6651838,61.6557121 92.9526349,25.1102115 92.9526349,25.1102115 C92.9591222,24.9080741 92.8019866,24.7421764 92.5937345,24.7396329 C92.5937345,24.7396329 80.1268727,24.5795961 79.8503804,24.7442095 C79.5738882,24.9088229 82.4565083,43.0494785 70.4730652,43.0494785 C58.489622,43.0494785 60.4161194,25.0935359 60.4161194,25.0935359 C60.4330943,24.9006082 60.2917961,24.7442095 60.0930509,24.7442095 L48.5369096,24.7442095 C48.3415089,24.7442095 48.1872188,24.9059691 48.1918146,25.1035813 C48.1918146,25.1035813 49.187744,60.9719244 43.0534668,65.0155933 C42.8139221,65.2192318 43.0529442,117.922738 43.0529442,117.922738 C43.0532328,117.98698 43.1146198,118.039359 43.1901536,118.039728 L97.0581057,118.303408 Z M50.2552876,45.9999991 C50.47583,42.0472413 50.4676512,27.0129958 50.4676513,27.0129958 L58.0185815,27.0797459 C58.2176776,27.0815059 58.3683908,27.2412815 58.3573109,27.4488155 C58.3573109,27.4488155 56.8848945,45.3996206 70.5263242,45.3996206 C84.167754,45.3996206 82.1434427,27.3638748 82.1434427,27.3638748 C82.1259321,27.1700897 82.2750665,27.0129958 82.4794948,27.0129958 L90.3027066,27.0129958 C90.5058137,27.0129958 90.6636505,27.1744113 90.6557128,27.3714826 C90.6557128,27.3714826 90.1762955,38.1778136 90.6704644,48.4940901 C91.1043014,57.5508743 93.0025522,64.8957216 94.9500636,66.4091162 L94.9500636,115.739404 C94.9500636,115.940064 94.7889906,116.102731 94.5778129,116.102731 L45.5182468,116.102733 C45.3126584,116.102733 45.145235,115.943398 45.1442482,115.73448 C45.1442482,115.73448 44.9079739,66.8411694 45.1459961,66.4091178 C47.5776367,64.2718497 49.7729214,54.6453949 50.2552876,45.9999991 Z" id="Path-1" fill="#8E92E8" sketch:type="MSShapeGroup"></path>
                <text id="YOU" sketch:type="MSTextLayer" font-family="Calibri" font-size="15.5" font-weight="bold" fill="#F9B057">
                    <tspan x="55.5" y="66.1999969">YOU</tspan>
                </text>
                <path d="M62.7673171,84.7369231 L63.7746341,83.7138462 L63.7746341,81.2584615 L62.7097561,80.1476923 L59.1697561,80.1476923 L58.0760976,81.2584615 L58.0760976,83.7138462 L59.0834146,84.7369231 L62.7673171,84.7369231 Z M59.1697561,94.0030769 L62.7097561,94.0030769 L63.7746341,92.8923077 L63.7746341,90.4076923 L62.7673171,89.3553846 L59.0834146,89.3553846 L58.0760976,90.4076923 L58.0760976,92.8923077 L59.1697561,94.0030769 Z M53.5,94.8215385 L53.5,88.4784615 L54.9102439,87.0461538 L53.5,85.6430769 L53.5,79.3292308 L57.2702439,75.5 L64.5804878,75.5 L68.3507317,79.3292308 L68.3507317,85.6430769 L66.9404878,87.0461538 L68.3507317,88.4784615 L68.3507317,94.8215385 L64.5804878,98.6507692 L57.2702439,98.6507692 L53.5,94.8215385 Z M82.2708943,90.5538462 L81.0908943,89.3846154 L76.5435773,89.3846154 L76.5435773,92.8923077 L77.6660163,94.0323077 L81.1772358,94.0323077 L82.2708943,92.8923077 L82.2708943,90.5538462 Z M71.9962602,79.3292308 L75.7665041,75.5 L83.0479675,75.5 L86.8182114,79.3292308 L86.8182114,82.6615385 L82.2708943,82.6615385 L82.2708943,81.2584615 L81.1772358,80.1476923 L77.6660163,80.1476923 L76.5435773,81.2584615 L76.5435773,84.7661538 L82.9904065,84.7661538 L86.8182114,88.6538462 L86.8182114,94.8215385 L83.0479675,98.6507692 L75.7665041,98.6507692 L71.9962602,94.8215385 L71.9962602,79.3292308 Z" id="86" stroke="#8E92E8" stroke-width="1.75" stroke-linejoin="round" sketch:type="MSShapeGroup"></path>
                <path d="M41.2427223,65.6274368 C41.2743559,65.6131468 41.3,65.6396613 41.3,65.6733088 L41.3,118.166746 L38.3531578,118.166746 C38.1581141,118.166746 38,118.001565 38,117.813325 L38,67.4457065 C38,67.2505173 38.1417969,67.0282307 38.3284812,66.943899 L41.2427223,65.6274368 Z" id="Path-2" fill="#ECAE67" sketch:type="MSShapeGroup"></path>
                <path d="M102.174666,65.4607623 C102.243886,65.4272008 102.3,65.4597101 102.3,65.5516574 L102.3,118.117567 C102.3,118.201329 102.242722,118.269231 102.158203,118.269231 L99.3531578,118.269231 C99.1581141,118.269231 99,118.103419 99,117.914462 L99,67.3547691 C99,67.1588355 99.1417969,66.9312497 99.3284812,66.8407358 L102.174666,65.4607623 Z" id="Path-3" fill="#ECAE67" sketch:type="MSShapeGroup" transform="translate(100.650000, 91.858548) scale(-1, 1) translate(-100.650000, -91.858548) "></path>
            </g>
        </g>
    </g>
</svg>