<?xml version="1.0" encoding="UTF-8" standalone="no"?>
<svg width="140px" height="140px" viewBox="0 0 140 140" version="1.1" xmlns="http://www.w3.org/2000/svg" xmlns:xlink="http://www.w3.org/1999/xlink" xmlns:sketch="http://www.bohemiancoding.com/sketch/ns">
    <!-- Generator: Sketch 3.2.1 (9971) - http://www.bohemiancoding.com/sketch -->
    <title>tandem-bike</title>
    <desc>Created with Sketch.</desc>
    <defs></defs>
    <g id="Page-1" stroke="none" stroke-width="1" fill="none" fill-rule="evenodd" sketch:type="MSPage">
        <g id="random" sketch:type="MSArtboardGroup" transform="translate(-208.000000, -65.000000)">
            <g id="tandem-bike" sketch:type="MSLayerGroup" transform="translate(208.000000, 65.000000)">
                <circle id="Oval-1" fill="#99A2FA" sketch:type="MSShapeGroup" cx="70" cy="70" r="70"></circle>
                <path d="M120.5114,78.29631 C120.5114,86.1974376 114.130812,92.602567 106.259957,92.602567 C98.3891016,92.602567 92.0085129,86.1974376 92.0085129,78.29631 C92.0085129,70.3951825 98.3891016,63.9900531 106.259957,63.9900531 C114.130812,63.9900531 120.5114,70.3951825 120.5114,78.29631 L120.5114,78.29631 L120.5114,78.29631 Z" id="path10484" stroke="#A4EEAE" stroke-width="2.83215662" sketch:type="MSShapeGroup"></path>
                <path d="M48.4239851,78.5066712 C48.4239851,86.4077987 42.0433965,92.8129281 34.1725414,92.8129281 C26.3016864,92.8129281 19.9210978,86.4077987 19.9210978,78.5066712 C19.9210978,70.6055437 26.3016864,64.2004143 34.1725414,64.2004143 C42.0433965,64.2004143 48.4239851,70.6055437 48.4239851,78.5066712 L48.4239851,78.5066712 L48.4239851,78.5066712 Z" id="path10484-5" stroke="#A4EEAE" stroke-width="2.83215662" sketch:type="MSShapeGroup"></path>
                <path d="M36.4173782,78.7887104 C36.4173782,80.1391208 35.3268485,81.2338448 33.9816121,81.2338448 C32.6363756,81.2338448 31.545846,80.1391208 31.545846,78.7887104 C31.545846,77.4382999 32.6363756,76.343576 33.9816121,76.343576 C35.3268485,76.343576 36.4173782,77.4382999 36.4173782,78.7887104 L36.4173782,78.7887104 L36.4173782,78.7887104 Z" id="path10484-4-1" stroke="#A4EEAE" stroke-width="2.09289508" sketch:type="MSShapeGroup"></path>
                <path d="M108.953399,78.749756 C108.953399,80.1001664 107.86287,81.1948904 106.517633,81.1948904 C105.172397,81.1948904 104.081867,80.1001664 104.081867,78.749756 C104.081867,77.3993455 105.172397,76.3046216 106.517633,76.3046216 C107.86287,76.3046216 108.953399,77.3993455 108.953399,78.749756 L108.953399,78.749756 L108.953399,78.749756 Z" id="path10484-4-1-2" stroke="#A4EEAE" stroke-width="2.09289508" sketch:type="MSShapeGroup"></path>
                <path d="M61.474468,78.9118126 C61.474468,80.7004599 60.0300384,82.150445 58.2482441,82.150445 C56.4664499,82.150445 55.0220202,80.7004599 55.0220202,78.9118126 C55.0220202,77.1231653 56.4664499,75.6731801 58.2482441,75.6731801 C60.0300384,75.6731801 61.474468,77.1231653 61.474468,78.9118126 L61.474468,78.9118126 L61.474468,78.9118126 Z" id="path10484-4-1-0" stroke="#A4EEAE" stroke-width="2.77208397" sketch:type="MSShapeGroup"></path>
                <path d="M85.8513163,78.9118126 C85.8513163,80.7004599 84.4068866,82.150445 82.6250924,82.150445 C80.8432981,82.150445 79.3988685,80.7004599 79.3988685,78.9118126 C79.3988685,77.1231653 80.8432981,75.6731801 82.6250924,75.6731801 C84.4068866,75.6731801 85.8513163,77.1231653 85.8513163,78.9118126 L85.8513163,78.9118126 L85.8513163,78.9118126 Z" id="path10484-4-1-0-0" stroke="#A4EEAE" stroke-width="2.77208397" sketch:type="MSShapeGroup"></path>
                <path d="M35.1628879,76.4809608 L48.8849534,56.8720637 C96.3471586,56.7100117 96.3471586,56.8720637 96.3471586,56.8720637" id="path11102" stroke="#A4EEAE" stroke-width="2.45544274" sketch:type="MSShapeGroup"></path>
                <rect id="rect11109" stroke="#A4EEAE" stroke-width="0.5" fill="#B0F3B9" sketch:type="MSShapeGroup" x="25" y="59" width="16.6977324" height="1.852713" rx="1.12425819"></rect>
                <path d="M105.549016,76.1568448 L94.0870534,50.0656717" id="path11111" stroke="#A4EEAE" stroke-width="2.45544274" sketch:type="MSShapeGroup"></path>
                <path d="M84.4008897,75.346561 C96.6700328,56.8720637 96.831469,56.8720637 96.831469,56.8720637" id="path11113" stroke="#A4EEAE" stroke-width="2.45544274" sketch:type="MSShapeGroup"></path>
                <path d="M81.1721707,75.5086181 C70.1945172,50.2277288 70.033081,50.0656717 70.033081,50.0656717" id="path11115" stroke="#A4EEAE" stroke-width="2.45544274" sketch:type="MSShapeGroup"></path>
                <path d="M60.0240431,75.8327306 C72.7774931,57.3582367 72.7774931,57.1961779 72.7774931,57.1961779" id="path11117" stroke="#A4EEAE" stroke-width="2.45544274" sketch:type="MSShapeGroup"></path>
                <path d="M56.7953224,75.5086181 L46.3019776,49.9036146" id="path11119" stroke="#A4EEAE" stroke-width="2.45544274" sketch:type="MSShapeGroup"></path>
                <path id="path11121" stroke="#A4EEAE" stroke-width="2.45544274" sketch:type="MSShapeGroup" d="M36.4543776,78.911814 C54.8580879,78.5876998 55.0195259,78.5876998 55.0195259,78.5876998"></path>
                <path d="M61.315531,78.4256444 L79.2349345,78.4256444" id="path11123" stroke="#A4EEAE" stroke-width="2.45544274" sketch:type="MSShapeGroup"></path>
                <rect id="seat1" stroke="#A4EEAE" stroke-width="0.5" fill="#A4EEAE" sketch:type="MSShapeGroup" x="65" y="49" width="11.439676" height="1.92231329" rx="1.34264179"></rect>
                <rect id="seat2" stroke="#A4EEAE" stroke-width="0.5" fill="#A4EEAE" sketch:type="MSShapeGroup" x="41" y="49" width="11.439676" height="1.92231329" rx="1.34264179"></rect>
                <path d="M100.646973,48.6794434 C102.73548,48.6794434 103.579112,48.5468058 104.591087,49.6167621 C106.046608,51.1556687 105.990363,53.5939625 104.465461,55.062849 C103.861413,55.644706 103.117525,55.9871715 102.348894,56.0929475 C102.228689,56.1095629 102.107859,56.1202417 101.986875,56.125209 C101.979671,56.1255033 101.972468,56.1257785 101.965368,56.1260329 C101.890644,56.128629 101.815887,56.1291483 101.741168,56.1273708" id="path11977" stroke="#A4EEAE" stroke-width="2.4" stroke-linecap="round" sketch:type="MSShapeGroup"></path>
                <path d="M93.9309585,47.5 C93.3063406,47.5 92.7999878,48.0089783 92.7999878,48.6156868 L92.7999878,48.7843132 C92.7999878,49.40049 93.3103319,49.9 93.9148331,49.9 L102.885143,49.9 C103.500855,49.9 104.034344,49.3910217 104.075296,48.7843132 L104.080988,48.7 C104.125722,48.0372583 103.629214,47.5 102.967529,47.5 L93.9309585,47.5 Z" id="rect11109-4" fill="#A4EEAE" sketch:type="MSShapeGroup"></path>
                <path d="M101.904379,56.0499998 C101.904379,56.3537564 101.658136,56.6 101.354379,56.6 C101.050622,56.6 100.804379,56.3537564 100.804379,56.0499998 C100.804379,55.7462432 101.050622,55.5 101.354379,55.5 C101.658136,55.5 101.904379,55.7462432 101.904379,56.0499998 L101.904379,56.0499998 L101.904379,56.0499998 Z" id="path12008" stroke="#A4EEAE" stroke-width="0.862068966" fill="#A4EEAE" sketch:type="MSShapeGroup"></path>
                <rect id="rect12034" stroke="#A4EEAE" stroke-width="0.862068966" fill="#A4EEAE" sketch:type="MSShapeGroup" transform="translate(94.045368, 49.800853) rotate(67.219290) translate(-94.045368, -49.800853) " x="92.1508698" y="48.8368037" width="3.78899567" height="1.92809787" rx="1.10930102"></rect>
            </g>
        </g>
    </g>
</svg>