<?xml version="1.0" encoding="UTF-8" standalone="no"?>
<svg width="500px" height="440px" viewBox="0 0 500 440" version="1.1" xmlns="http://www.w3.org/2000/svg" xmlns:xlink="http://www.w3.org/1999/xlink" xmlns:sketch="http://www.bohemiancoding.com/sketch/ns">
    <!-- Generator: Sketch 3.2.1 (9971) - http://www.bohemiancoding.com/sketch -->
    <title>bad-ux</title>
    <desc>Created with Sketch.</desc>
    <defs></defs>
    <g id="Page-1" stroke="none" stroke-width="1" fill="none" fill-rule="evenodd" sketch:type="MSPage">
        <g id="bad-ux" sketch:type="MSArtboardGroup" fill="#99A2FA">
            <path d="M206.982124,347.38502 L206.982124,328.25 L75.6076496,328.25 C67.9801526,328.329792 61.0192178,325.85625 55.9904698,321.467708 C50.9448468,317.158958 47.974848,310.935208 48.0001605,304.3125 L56.4376572,304.3125 L64.8751538,304.3125 C64.9004663,306.546667 65.727341,308.302083 67.3810903,309.738333 C69.0348397,311.174583 71.6589011,312.291667 75.6076496,312.291667 L429.982509,312.291667 C430.370634,312.371458 432.167821,311.812917 433.644383,310.296875 C435.13782,308.701042 436.141882,306.546667 436.125007,304.3125 L436.125007,280.375 L64.8751538,280.375 L64.8751538,280.375 L64.8751538,304.3125 L48.0001605,304.3125 L48.0001605,64.9375 C48.0339105,51.771875 59.3317185,41.0797917 73.3126505,41 L427.68751,41 C441.668442,41.0797917 452.96625,51.771875 453,64.9375 L453,304.3125 C452.983125,310.935208 450.198751,316.76 446.148753,320.988958 C442.081879,325.138125 436.580632,328.25 429.982509,328.25 L270.574913,328.25 L270.574913,328.25 L270.574913,347.469973 C270.749528,347.493961 270.924481,347.523786 271.099554,347.559583 C280.74181,349.634167 289.382481,352.586458 296.655906,356.336667 C303.921382,360.166667 309.915003,364.794583 313.937246,370.699167 C316.592245,374.68875 318.285403,379.396458 318.269505,384.343542 C318.277454,386.497917 317.450748,388.492708 315.956317,390.00875 C314.453938,391.524792 312.458714,392.322708 310.336305,392.322708 C308.213895,392.322708 306.210723,391.524792 304.708343,390.00875 C303.205963,388.492708 302.371308,386.497917 302.371308,384.343542 L302.371308,384.024375 C302.371308,381.949792 303.221861,379.875208 304.700394,378.438958 C306.178926,376.922917 308.229794,376.045208 310.320407,376.045208 C312.411019,376.045208 314.461887,376.922917 315.940419,378.438958 C317.418952,379.875208 318.269505,381.949792 318.269505,384.024375 C318.277454,390.96625 315.058069,397.19 310.46349,401.9775 C305.837115,406.844792 299.764004,410.754583 292.609815,413.94625 C278.309386,420.329583 259.517717,424 238.794417,424 C223.24598,424 208.77862,421.925417 196.489314,418.255 C184.215906,414.425 174.049008,409.238542 167.093547,401.9775 C162.506917,397.19 159.279583,390.96625 159.287532,384.024375 C159.279583,379.077292 160.98069,374.369583 163.643638,370.459792 C166.314535,366.470208 169.899579,363.118958 174.12055,360.246458 C182.562493,354.421667 193.635588,350.192708 206.481331,347.479792 C206.648457,347.442581 206.815451,347.411034 206.982124,347.38502 L206.982124,347.38502 Z M206.982124,363.672353 L206.982124,384.104167 C206.982124,386.258542 207.832678,388.333125 209.31121,389.769375 C210.789742,391.285417 212.84061,392.083333 214.931223,392.083333 L262.625815,392.083333 C264.716428,392.083333 266.767295,391.285417 268.245827,389.769375 C269.72436,388.333125 270.574913,386.258542 270.574913,384.104167 L270.574913,363.826902 C280.642299,366.233479 288.964822,369.768495 294.422209,373.571667 C297.41107,375.64625 299.509632,377.800625 300.733794,379.635833 C301.965904,381.471042 302.363359,382.907292 302.371308,384.343542 C302.387206,388.811875 305.940453,392.322708 310.336305,392.322708 C314.724207,392.322708 318.269505,388.732083 318.269505,384.343542 L318.269505,384.024375 C318.269505,381.949792 317.418952,379.875208 315.940419,378.438958 C314.461887,376.922917 312.411019,376.045208 310.320407,376.045208 C308.229794,376.045208 306.178926,376.922917 304.700394,378.438958 C303.221861,379.875208 302.371308,381.949792 302.371308,384.024375 C302.363359,385.939375 301.584347,388.173542 298.937297,391.046042 C295.03429,395.195208 287.045446,399.823125 276.496992,402.935 C265.948538,406.126667 252.888169,408.041667 238.794417,408.041667 C220.002748,408.121458 203.015524,404.610625 191.425738,399.344375 C185.630845,396.791042 181.234994,393.758958 178.61974,391.046042 C175.97269,388.173542 175.193679,385.939375 175.18573,384.024375 C175.201628,382.667917 175.599083,381.231667 176.823244,379.396458 C178.635638,376.60375 182.514799,373.2525 188.206353,370.38 C193.255857,367.753412 199.658124,365.442611 206.982124,363.672353 L206.982124,363.672353 Z M254.676716,328.25 L222.880321,328.25 L222.880321,376.125 L254.676716,376.125 L254.676716,328.25 L254.676716,328.25 Z M64.8751538,264.416667 L64.8751538,64.9375 C64.8751538,62.783125 65.8032784,60.7883333 67.3642153,59.3520833 C68.9251522,57.8360417 71.0007764,56.9583333 73.3126505,56.9583333 L427.68751,56.9583333 C429.999384,56.9583333 432.066571,57.8360417 433.635945,59.3520833 C435.196882,60.7883333 436.125007,62.783125 436.125007,64.9375 L436.125007,264.416667 L64.8751538,264.416667 L64.8751538,264.416667 Z M297.540444,120.440484 C294.0257,116.953731 288.343233,116.953731 284.82849,120.440484 L246.487451,158.884168 L208.699494,120.976907 C205.211512,117.490154 199.555807,117.490154 196.085667,120.976907 C192.597685,124.46366 192.597685,130.185511 196.085667,133.672263 L233.873624,171.490121 L195.818047,209.665594 C192.312223,213.152347 192.312223,218.874198 195.818047,222.450354 C199.332791,225.937107 205.024178,225.937107 208.538922,222.450354 L246.594499,184.274881 L284.382456,222.182143 C287.870438,225.668895 293.526143,225.668895 297.005204,222.182143 C300.493186,218.69539 300.493186,212.973539 297.005204,209.486786 L259.208326,171.668929 L297.540444,133.225244 C301.046267,129.649087 301.046267,124.01664 297.540444,120.440484 Z" id="desktop-2" sketch:type="MSShapeGroup"></path>
        </g>
    </g>
</svg>