<?xml version="1.0" encoding="UTF-8" standalone="no"?>
<svg width="140px" height="140px" viewBox="0 0 140 140" version="1.1" xmlns="http://www.w3.org/2000/svg" xmlns:xlink="http://www.w3.org/1999/xlink" xmlns:sketch="http://www.bohemiancoding.com/sketch/ns">
    <!-- Generator: Sketch 3.2.1 (9971) - http://www.bohemiancoding.com/sketch -->
    <title>beta</title>
    <desc>Created with Sketch.</desc>
    <defs></defs>
    <g id="Page-1" stroke="none" stroke-width="1" fill="none" fill-rule="evenodd" sketch:type="MSPage">
        <g id="random" sketch:type="MSArtboardGroup" transform="translate(-882.000000, -49.000000)">
            <g id="beta" sketch:type="MSLayerGroup" transform="translate(882.000000, 49.000000)">
                <circle id="Oval-3" fill="#F1B976" sketch:type="MSShapeGroup" cx="70" cy="70" r="70"></circle>
                <path d="M63.8,46 L63.8,50.6 L63.85,97.2 L63.85,102.85 L54.35,102.85 L54.35,77.2 L54.4,77.2 L54.35,50.6 L54.35,46 L63.8,46 L63.8,46 Z M49.7,59.55 L49.7,97.1 L49.7,102.85 L40.25,102.85 L40.25,59.55 L49.7,59.55 L49.7,59.55 Z M26,89.9 L26.05,89.9 L26,74.15 L35.45,74.15 L35.5,97.1 L35.5,102.85 L26,102.85 L26,89.9 L26,89.9 Z" id="Shape-2" fill="#FFFFFF" sketch:type="MSShapeGroup"></path>
                <path d="M75.0000635,102.971818 C75.0000635,102.971818 74.9999206,42.0413818 75.0000635,36.6734619 C75.0000853,35.8549274 76.2554667,36.6042336 88.2177734,35.9072266 C106.17627,34.8608398 109.44427,44.8494798 109.351416,48.010466 C109.200439,53.1501071 109.351418,59.6660149 101.493164,60.4580078 C115.608643,61.5690918 114.701416,76.8125 114.108887,78.5854492 C113.516357,80.3583984 109.803223,88.5227051 95.590332,88.5227051 C88.5324728,88.5227051 86.0591459,88.5227051 84.9478178,88.5227051 C84.9478182,91.9609364 84.9478174,102.971818 84.9478174,102.971818 L75.0000635,102.971818 Z M102.020997,51.2080079 C102.020997,45.5132782 98.085693,43.9459391 85.4287745,43.9459391 L85.3547998,79.5808089 L94.4306637,79.5808089 C99.059018,79.5808089 106.004639,76.8168961 106.004639,72.0900875 C106.004639,67.363279 99.314941,63.1062003 93.9028317,64.7729483 C93.6903471,64.5501749 93.1972671,59.3602612 93.2617189,59.3029781 C93.6983443,58.9149166 102.020997,56.2033692 102.020997,51.2080079 Z" id="Path-134" fill="#2E8BE8" sketch:type="MSShapeGroup"></path>
            </g>
        </g>
    </g>
</svg>