<?xml version="1.0" encoding="UTF-8" standalone="no"?>
<svg width="420px" height="281px" viewBox="0 0 420 281" version="1.1" xmlns="http://www.w3.org/2000/svg" xmlns:xlink="http://www.w3.org/1999/xlink" xmlns:sketch="http://www.bohemiancoding.com/sketch/ns">
    <!-- Generator: Sketch 3.1.1 (8761) - http://www.bohemiancoding.com/sketch -->
    <title>bullet1</title>
    <desc>Created with Sketch.</desc>
    <defs></defs>
    <g id="Page-1" stroke="none" stroke-width="1" fill="none" fill-rule="evenodd" sketch:type="MSPage">
        <path d="M212,162.82973 L212,280 L420,280 L420,1.42108547e-14 L212,0 L212,128.17027 C220.578311,129.352099 227,136.550365 227,145.5 C227,154.449635 220.578311,161.647901 212,162.82973 L212,162.82973 Z M208,128.060777 L208,0 L0,0 L0,280 L208,280.020508 L208,162.939223 C198.925606,162.199495 192,154.794148 192,145.5 C192,136.205852 198.925606,128.800505 208,128.060777 L208,128.060777 Z M209.699951,132.700012 C202.419951,132.700012 196.699951,138.420012 196.699951,145.700012 C196.699951,152.980012 202.419951,158.700012 209.699951,158.700012 C216.979951,158.700012 222.699951,152.980012 222.699951,145.700012 C222.699951,138.420012 216.979951,132.700012 209.699951,132.700012 Z" id="bullet1" fill="#F2F2F2" sketch:type="MSShapeGroup"></path>
    </g>
</svg>