<?xml version="1.0" encoding="UTF-8" standalone="no"?>
<svg width="140px" height="140px" viewBox="0 0 140 140" version="1.1" xmlns="http://www.w3.org/2000/svg" xmlns:xlink="http://www.w3.org/1999/xlink" xmlns:sketch="http://www.bohemiancoding.com/sketch/ns">
    <!-- Generator: Sketch 3.2 (9961) - http://www.bohemiancoding.com/sketch -->
    <title>careers</title>
    <desc>Created with Sketch.</desc>
    <defs></defs>
    <g id="Page-1" stroke="none" stroke-width="1" fill="none" fill-rule="evenodd" sketch:type="MSPage">
        <g id="Artboard-15" sketch:type="MSArtboardGroup" transform="translate(-28.000000, -65.000000)">
            <g id="tandem-bike" sketch:type="MSLayerGroup" transform="translate(28.000000, 65.000000)">
                <g id="careers">
                    <circle id="Oval-1-2" fill="#FFFFFF" sketch:type="MSShapeGroup" cx="70" cy="70" r="70"></circle>
                    <path d="M94.0581057,116.303408 C94.1335957,116.303777 94.1947925,116.244188 94.1947925,116.151972 L94.1947925,63.0155941 C88.6651838,59.6557121 89.9526349,23.1102115 89.9526349,23.1102115 C89.9591222,22.9080741 89.8019866,22.7421764 89.5937345,22.7396329 C89.5937345,22.7396329 77.1268727,22.5795961 76.8503804,22.7442095 C76.5738882,22.9088229 79.4565083,41.0494785 67.4730652,41.0494785 C55.489622,41.0494785 57.4161194,23.0935359 57.4161194,23.0935359 C57.4330943,22.9006082 57.2917961,22.7442095 57.0930509,22.7442095 L45.5369096,22.7442095 C45.3415089,22.7442095 45.1872188,22.9059691 45.1918146,23.1035813 C45.1918146,23.1035813 46.187744,58.9719244 40.0534668,63.0155933 C39.8139221,63.2192318 40.0529442,115.922738 40.0529442,115.922738 C40.0532328,115.98698 40.1146198,116.039359 40.1901536,116.039728 L94.0581057,116.303408 Z M47.2552876,43.9999991 C47.47583,40.0472413 47.4676512,25.0129958 47.4676513,25.0129958 L55.0185815,25.0797459 C55.2176776,25.0815059 55.3683908,25.2412815 55.3573109,25.4488155 C55.3573109,25.4488155 53.8848945,43.3996206 67.5263242,43.3996206 C81.167754,43.3996206 79.1434427,25.3638748 79.1434427,25.3638748 C79.1259321,25.1700897 79.2750665,25.0129958 79.4794948,25.0129958 L87.3027066,25.0129958 C87.5058137,25.0129958 87.6636505,25.1744113 87.6557128,25.3714826 C87.6557128,25.3714826 87.1762955,36.1778136 87.6704644,46.4940901 C88.1043014,55.5508743 90.0025522,62.8957216 91.9500636,64.4091162 L91.9500636,113.739404 C91.9500636,113.940064 91.7889906,114.102731 91.5778129,114.102731 L42.5182468,114.102733 C42.3126584,114.102733 42.145235,113.943398 42.1442482,113.73448 C42.1442482,113.73448 41.9079739,64.8411694 42.1459961,64.4091178 C44.5776367,62.2718497 46.7729214,52.6453949 47.2552876,43.9999991 Z" id="Path-1" fill="#4990E2" sketch:type="MSShapeGroup"></path>
                    <text id="YOU" sketch:type="MSTextLayer" font-family="Calibri" font-size="15" font-weight="bold" fill="#ECAE67">
                        <tspan x="53" y="60.3846154">YOU</tspan>
                    </text>
                    <path d="M59.7673171,80.7369231 L60.7746341,79.7138462 L60.7746341,77.2584615 L59.7097561,76.1476923 L56.1697561,76.1476923 L55.0760976,77.2584615 L55.0760976,79.7138462 L56.0834146,80.7369231 L59.7673171,80.7369231 Z M56.1697561,90.0030769 L59.7097561,90.0030769 L60.7746341,88.8923077 L60.7746341,86.4076923 L59.7673171,85.3553846 L56.0834146,85.3553846 L55.0760976,86.4076923 L55.0760976,88.8923077 L56.1697561,90.0030769 Z M50.5,90.8215385 L50.5,84.4784615 L51.9102439,83.0461538 L50.5,81.6430769 L50.5,75.3292308 L54.2702439,71.5 L61.5804878,71.5 L65.3507317,75.3292308 L65.3507317,81.6430769 L63.9404878,83.0461538 L65.3507317,84.4784615 L65.3507317,90.8215385 L61.5804878,94.6507692 L54.2702439,94.6507692 L50.5,90.8215385 Z M79.2708943,86.5538462 L78.0908943,85.3846154 L73.5435773,85.3846154 L73.5435773,88.8923077 L74.6660163,90.0323077 L78.1772358,90.0323077 L79.2708943,88.8923077 L79.2708943,86.5538462 Z M68.9962602,75.3292308 L72.7665041,71.5 L80.0479675,71.5 L83.8182114,75.3292308 L83.8182114,78.6615385 L79.2708943,78.6615385 L79.2708943,77.2584615 L78.1772358,76.1476923 L74.6660163,76.1476923 L73.5435773,77.2584615 L73.5435773,80.7661538 L79.9904065,80.7661538 L83.8182114,84.6538462 L83.8182114,90.8215385 L80.0479675,94.6507692 L72.7665041,94.6507692 L68.9962602,90.8215385 L68.9962602,75.3292308 Z" id="86" stroke="#4A90E2" stroke-width="1.75" stroke-linejoin="round" sketch:type="MSShapeGroup"></path>
                    <path d="M39.1426246,63.0039492 C39.1742582,62.9895906 39.1999023,63.0165015 39.1999023,63.0505481 L39.1999023,116.166746 L36.2530602,116.166746 C36.0580165,116.166746 35.8999023,115.999571 35.8999023,115.809059 L35.8999023,64.8335239 C35.8999023,64.6359788 36.0416992,64.4114746 36.2283835,64.3267377 L39.1426246,63.0039492 Z" id="Path-2" fill="#ECAE67" sketch:type="MSShapeGroup"></path>
                    <path d="M97.9580078,63.0285905 C98.0363201,62.994162 98.0998047,63.0264584 98.0998047,63.11916 L98.0998047,116.116323 C98.0998047,116.200772 98.042527,116.269231 97.9580078,116.269231 L95.1529625,116.269231 C94.9579188,116.269231 94.7998047,116.101534 94.7998047,115.910428 L94.7998047,64.775837 C94.7998047,64.5776755 94.9416016,64.3546957 95.1282859,64.2726235 L97.9580078,63.0285905 Z" id="Path-3" fill="#ECAE67" sketch:type="MSShapeGroup" transform="translate(96.449805, 89.642194) scale(-1, 1) translate(-96.449805, -89.642194) "></path>
                </g>
            </g>
        </g>
    </g>
</svg>