<?xml version="1.0" encoding="UTF-8" standalone="no"?>
<svg width="500px" height="440px" viewBox="0 0 500 440" version="1.1" xmlns="http://www.w3.org/2000/svg" xmlns:xlink="http://www.w3.org/1999/xlink" xmlns:sketch="http://www.bohemiancoding.com/sketch/ns">
    <!-- Generator: Sketch 3.2.1 (9971) - http://www.bohemiancoding.com/sketch -->
    <title>customizations</title>
    <desc>Created with Sketch.</desc>
    <defs></defs>
    <g id="Page-1" stroke="none" stroke-width="1" fill="none" fill-rule="evenodd" sketch:type="MSPage">
        <g id="customizations" sketch:type="MSArtboardGroup" fill="#F1B976">
            <g id="Group" sketch:type="MSLayerGroup" transform="translate(75.000000, 61.000000)">
                <path d="M171.555376,121.216665 L192.722813,133.721458 L187.001708,147.327708 L163.002875,141.237292 C160.463042,140.589375 157.806583,141.56125 156.232146,143.634583 C152.299292,148.882708 147.614854,153.482917 142.314896,157.305625 C140.157333,158.860625 139.1725,161.581875 139.839854,164.173542 L145.975625,187.952083 L132.343458,193.524167 L119.650771,172.207708 C118.296625,169.94 115.724396,168.708958 113.113292,169.097708 C110.094,169.55125 107.048792,169.810417 103.893438,169.810417 C100.511313,169.810417 97.1680625,169.55125 93.9284792,169.032917 L92.950125,168.968125 C90.6370625,168.968125 88.518375,170.199167 87.352125,172.142917 L74.6853542,193.265 L61.0013542,187.563333 L67.0399375,163.460833 C67.6684167,160.933958 66.7224583,158.2775 64.649125,156.7225 C59.3750833,152.770208 54.7295208,148.040417 50.8744167,142.662708 C49.3064583,140.524583 46.533375,139.487917 43.9481875,140.200625 L20.3834583,146.485417 L14.8243333,132.943958 L36.1278333,120.309583 C38.4020208,118.948958 39.6265833,116.357292 39.2313542,113.765625 C38.7778125,110.720417 38.5445625,107.675208 38.5445625,104.435625 C38.5445625,100.872083 38.8166875,97.3733333 39.380375,94.0689583 L39.4710833,92.9675 C39.4710833,90.635 38.2270833,88.4320833 36.2185417,87.330625 L15.1029375,75.1497917 L20.7527708,61.673125 L44.3887708,68.0875 C46.9739583,68.8002083 49.7146458,67.8283333 51.3020417,65.6902083 C55.2996875,60.2477083 60.1072292,55.5179167 65.5497292,51.565625 C67.7267292,50.010625 68.7180417,47.289375 68.03125,44.6977083 L61.7853333,20.9839583 L75.4175,15.411875 L87.8639792,36.6635417 C89.1986875,38.93125 91.7903542,40.1622917 94.4014583,39.7735417 C97.5114583,39.32 100.660333,39.125625 103.893438,39.125625 C107.37275,39.125625 110.690083,39.3847917 113.9815,39.903125 C116.605563,40.3566667 119.223146,39.125625 120.577292,36.793125 L133.127438,15.6710417 L146.720729,21.3079167 L140.403542,45.0864583 C139.723229,47.678125 140.669188,50.3345833 142.800833,51.954375 C148.139667,55.9066667 152.869458,60.70125 156.795833,66.0789583 C158.363792,68.281875 161.085042,69.25375 163.676708,68.5410417 L187.390458,62.3858333 L192.9755,76.056875 L171.652563,88.7560417 C169.404292,90.1166667 168.179729,92.7083333 168.568479,95.3 C169.015542,98.2804167 169.255271,101.325625 169.255271,104.435625 C169.255271,107.934375 168.983146,111.303542 168.451854,114.607917 C168.030708,117.199583 169.26175,119.856042 171.555375,121.216667 L181.248202,116.616461 C181.88316,112.664169 182.213604,108.582292 182.213604,104.435625 C182.213604,100.677708 181.785972,102.16792 181.248202,98.539587 L204.40475,84.2854167 C207.158396,82.665625 208.29225,79.2316667 207.080646,76.25125 L197.232313,52.2135417 C196.001271,49.233125 192.74225,47.6133333 189.606333,48.3908333 L163.676714,55.5827084 C158.96636,49.1035417 160.23452,49.8810415 153.852541,45.0864582 L160.696292,19.2345833 C161.532104,16.0597917 159.938229,12.8202083 156.938375,11.5891667 L132.933063,1.48166667 C129.959125,0.250625 126.505729,1.416875 124.860021,4.20291667 L111.500979,27.0095825 C111.500979,27.0095825 108.033625,26.1672917 103.893438,26.1672917 C100.044813,26.1672917 97.0566428,27.0095825 97.0566428,27.0095825 L83.7626667,4.00854167 C82.1299167,1.2225 78.7024375,0.05625 75.7155417,1.28729167 L51.6195208,11.135625 C48.6196667,12.3666667 46.9804375,15.60625 47.8097708,18.7810417 L54.8994124,45.0864582 C51.2905181,45.0864582 45.9708998,50.8698177 44.3887694,55.5827084 L18.6664792,47.678125 C15.5370417,46.8358333 12.245625,48.455625 10.9951458,51.4360417 L0.945958333,75.4089583 C-0.317479167,78.4541667 0.861729167,81.888125 3.693125,83.5727083 L26.4220412,95.3000012 L26.4220412,94.0689602 C25.7222912,98.2156269 25.5862292,100.224167 25.5862292,104.435625 C25.5862292,108.258333 25.0290212,108.62035 25.5862296,112.313475 L3.40804167,124.650625 C0.647916667,126.270417 -0.505375,129.704375 0.712708333,132.684792 L10.5545625,156.657708 C11.7920833,159.702917 15.0705417,161.322708 18.2258958,160.480417 L44.3887694,153.806868 C45.7412093,157.499998 47.0822249,160.806001 53.3994124,165.600584 L47.077625,189.831042 C46.300125,192.941042 47.9069583,196.115833 50.8614583,197.346875 L74.8538125,207.389583 C77.82775,208.685417 81.2617083,207.519167 82.9138958,204.733125 L94.4014609,182.768751 L92.9501288,182.768751 C96.8246705,183.351876 99.8374792,182.76875 103.893438,182.76875 C107.677271,182.76875 107.84025,183.351876 111.500979,182.768751 L124.069563,204.992292 C125.708792,207.713542 129.123313,208.879792 132.090771,207.64875 L156.122,197.800417 C159.121854,196.569375 160.748125,193.329792 159.938229,190.155 L153.852541,165.600584 C160.228041,161.000376 158.979318,160.091659 163.676714,153.806868 L189.224063,161.257917 C192.334063,162.035417 195.554208,160.480417 196.791729,157.5 L206.853875,133.527083 C208.110833,130.481875 206.9705,127.047917 204.177979,125.428125 L181.248202,115.644583 L181.248208,116.616458" id="Fill-398" sketch:type="MSShapeGroup"></path>
                <path d="M80.9895833,127.371875 L76.4088125,131.972083 C83.9829583,139.552708 93.9673542,143.375417 103.893438,143.375417 C113.819521,143.375417 123.803917,139.552708 131.378063,131.972083 L131.384542,131.972083 C138.958688,124.391458 142.774917,114.413542 142.768438,104.435625 C142.774917,94.5225 138.958688,84.5445833 131.378063,76.9639583 L131.384542,76.9639583 C123.810396,69.3833333 113.826,65.560625 103.899917,65.560625 C93.9738333,65.560625 83.9829583,69.3833333 76.4088125,76.9639583 C68.8217083,84.5445833 65.0119583,94.5225 65.0184375,104.435625 C65.0119583,114.413542 68.8281875,124.391458 76.4088125,131.972083 L85.5703542,122.771667 C80.4971667,117.717917 77.98325,111.109167 77.9767708,104.435625 C77.98325,97.826875 80.4906875,91.218125 85.5703542,86.164375 C90.6500208,81.0458333 97.2458125,78.58375 103.899917,78.5189583 C110.554021,78.58375 117.143333,81.0458333 122.216521,86.164375 L122.223,86.164375 C127.289708,91.218125 129.803625,97.826875 129.810104,104.435625 C129.803625,111.109167 127.289708,117.717917 122.216521,122.771667 C117.143333,127.890208 110.547542,130.352292 103.893438,130.417083 C97.2393333,130.352292 90.6435417,127.890208 85.5703542,122.771667 L80.9895833,127.371875" id="Fill-399" sketch:type="MSShapeGroup"></path>
                <path d="M282.368563,227.86375 L298.184208,229.937083 L298.229563,237.323333 L282.329688,239.785417 C279.7445,240.174167 277.664688,242.117917 277.042688,244.644792 C275.980104,248.985833 274.269604,253.197292 271.963021,257.02 C270.589438,259.287708 270.757896,262.203333 272.384167,264.341458 L282.102917,276.911042 L276.971417,282.094375 L263.935333,272.634792 C261.797208,271.079792 258.926938,270.950208 256.685146,272.375625 C254.922813,273.477083 253.089208,274.384167 251.100104,275.29125 C248.961979,276.198333 246.784979,276.911042 244.620938,277.494167 L243.325104,277.947708 C241.381354,278.919583 240.066083,280.73375 239.774521,282.871875 L237.610479,298.745833 L230.211271,298.810625 L227.664958,282.871875 C227.250292,280.280208 225.345417,278.206875 222.818542,277.558958 C218.419188,276.522292 214.20125,274.772917 210.359104,272.440417 C208.046042,271.015 205.130417,271.209375 203.00525,272.900437 L190.571729,282.619187 L185.420792,277.558958 L194.91925,264.542312 C196.480729,262.4625 196.590875,259.546875 195.191375,257.279167 C194.096396,255.529792 193.124521,253.650833 192.27575,251.707083 C191.284438,249.374583 190.519896,247.106875 190.001563,244.903958 L189.489708,243.478542 C188.498396,241.534792 186.619438,240.174167 184.442438,239.915 L168.782292,238.100833 L168.730458,230.908958 L184.448917,228.706042 C187.105375,228.317292 189.256458,226.373542 189.8655,223.781875 C190.908646,219.246458 192.6645,214.970208 195.042354,211.017917 C196.422417,208.750208 196.247479,205.834583 194.601771,203.696458 L184.857104,191.191667 L189.969167,186.008333 L202.836792,195.532708 C204.955479,197.087708 207.832229,197.217292 210.0805,195.791875 C211.894667,194.690417 213.8125,193.718542 215.905271,192.811458 C218.075792,191.904375 220.226875,191.191667 222.397396,190.608542 C225.002021,190.025417 226.932813,187.8225 227.282688,185.166042 L229.381938,169.356875 L236.671,169.292083 L238.958146,185.036458 C239.340417,187.692917 241.277688,189.831042 243.862875,190.414167 C248.288146,191.515625 252.577354,193.265 256.490771,195.5975 C258.771438,196.958125 261.680583,196.76375 263.786313,195.143958 L276.362375,185.425208 L281.565146,190.54375 L272.073167,203.631667 C270.518167,205.769792 270.4145,208.620625 271.801042,210.823542 C272.883063,212.572917 273.848458,214.451875 274.703708,216.460417 C275.636708,218.663333 276.375333,220.801458 276.919583,223.004375 C277.561021,225.596042 279.712104,227.539792 282.368563,227.86375 L288.949219,215.78174 C288.223552,212.866115 288.648578,214.373445 287.462891,211.587404 C286.361432,209.060529 286.612412,208.675294 285.023438,207.7959 L295.326896,193.65375 C297.205854,191.062083 296.914292,187.498542 294.633625,185.230833 L281.435563,172.207708 C279.1225,169.94 275.487688,169.745625 272.921938,171.689375 L259.53711,182.652343 C257.822922,180.41162 253.791992,179.240234 251.611328,179.240234 L251.100105,179.240234 L248.683375,161.841042 C248.223354,158.66625 245.45675,156.268958 242.230125,156.33375 L223.654354,156.463333 C220.427729,156.463333 217.693521,158.860625 217.272375,162.035417 L214.868603,179.240234 C214.868603,179.240234 212.866543,179.24537 210.080502,180.41162 C207.456439,181.57787 208.812199,181.162135 206.421387,182.652343 L193.150438,172.207708 C190.558771,170.32875 186.949875,170.587917 184.688646,172.920417 L171.639604,186.137917 C169.358938,188.470417 169.145125,192.09875 171.140708,194.690417 L181.17627,208.675294 C179.125488,211.277082 178.620606,214.128907 178.620606,217.036622 L161.311813,218.857708 C158.098146,219.31125 155.700854,222.0325 155.726771,225.272083 L155.869313,243.867292 C155.88875,247.171667 158.337875,249.892917 161.583938,250.281667 L178.620606,252.614167 C178.620606,252.614167 179.116563,253.91 180.360563,256.760833 C181.449063,259.3525 181.455541,259.157736 182.919832,261.490236 L171.659042,274.384167 C169.760646,276.975833 170.052208,280.604167 172.339354,282.871875 L185.537417,295.830208 C187.863438,298.162708 191.511208,298.357083 194.083438,296.348542 L207.037598,285.457513 C208.555664,287.059564 213.259766,288.948236 215.90527,288.948236 L218.296083,306.326458 C218.801458,309.50125 221.535667,311.83375 224.736375,311.775437 L243.318625,311.639375 C246.54525,311.639375 249.253542,309.242083 249.694125,306.067292 L251.100105,289.545419 C253.899105,288.832711 253.717685,289.09627 256.490769,287.865228 C258.166992,287.068841 259.53711,285.457513 259.53711,285.457513 L273.848458,295.895 C276.440125,297.773958 280.029583,297.45 282.284333,295.182292 L295.300979,281.964792 C297.581646,279.697083 297.801938,276.06875 295.819313,273.477083 L285.611328,259.911134 C287.462891,257.279168 288.26416,254.328126 288.26416,251.707086 L305.751875,249.245 C308.920188,248.726667 311.252688,246.005417 311.226771,242.765833 L311.103667,224.235417 C311.07775,220.995833 308.680458,218.274583 305.460313,217.821042 L288.949219,215.78174" id="Fill-400" sketch:type="MSShapeGroup"></path>
                <path d="M226.2525,252.095833 L223.84225,258.121458 C226.978167,259.3525 230.250146,260.000417 233.463813,259.935625 C243.733292,260.000417 253.458521,253.845208 257.527438,243.737708 L257.520958,243.737708 C258.790875,240.562917 259.399917,237.258542 259.399917,234.018958 C259.406396,223.781875 253.23175,214.063125 243.130729,209.98125 L243.12425,209.98125 C239.988333,208.750208 236.716354,208.102292 233.502688,208.102292 C223.226729,208.102292 213.507979,214.2575 209.432583,224.365 C208.169146,227.539792 207.560104,230.844167 207.560104,234.018958 C207.553625,244.320833 213.728271,254.039583 223.835771,258.121458 L223.84225,258.121458 L226.2525,252.095833 L228.669229,246.070208 C223.596042,244.061667 220.531396,239.202292 220.518438,234.018958 C220.524917,232.463958 220.816479,230.844167 221.457917,229.224375 C223.479417,224.170625 228.364708,221.125417 233.502688,221.125417 C235.096563,221.125417 236.709875,221.384583 238.30375,222.0325 C243.370458,224.041042 246.435104,228.900417 246.441583,234.018958 C246.441583,235.63875 246.143542,237.258542 245.495625,238.878333 C243.487083,243.932083 238.595313,246.977292 233.463813,246.977292 C231.863458,246.977292 230.250146,246.718125 228.66275,246.070208 L228.669229,246.070208 L226.2525,252.095833" id="Fill-401" sketch:type="MSShapeGroup"></path>
            </g>
        </g>
    </g>
</svg>