<?xml version="1.0" encoding="UTF-8" standalone="no"?>
<svg width="1271px" height="534px" viewBox="0 0 1271 534" version="1.1" xmlns="http://www.w3.org/2000/svg" xmlns:xlink="http://www.w3.org/1999/xlink" xmlns:sketch="http://www.bohemiancoding.com/sketch/ns">
    <!-- Generator: Sketch 3.1.1 (8761) - http://www.bohemiancoding.com/sketch -->
    <title>rebranding</title>
    <desc>Created with Sketch.</desc>
    <defs>
        <filter x="-50%" y="-50%" width="200%" height="200%" filterUnits="objectBoundingBox" id="filter-1">
            <feOffset dx="0" dy="1" in="SourceAlpha" result="shadowOffsetOuter1"></feOffset>
            <feGaussianBlur stdDeviation="2" in="shadowOffsetOuter1" result="shadowBlurOuter1"></feGaussianBlur>
            <feColorMatrix values="0 0 0 0 0.586548682   0 0 0 0 0.586548682   0 0 0 0 0.586548682  0 0 0 0.35 0" in="shadowBlurOuter1" type="matrix" result="shadowMatrixOuter1"></feColorMatrix>
            <feMerge>
                <feMergeNode in="shadowMatrixOuter1"></feMergeNode>
                <feMergeNode in="SourceGraphic"></feMergeNode>
            </feMerge>
        </filter>
        <filter x="-50%" y="-50%" width="200%" height="200%" filterUnits="objectBoundingBox" id="filter-2">
            <feMorphology radius="1" in="SourceAlpha" operator="dilate" result="shadowSpreadOuter1"></feMorphology>
            <feOffset dx="0" dy="3" in="shadowSpreadOuter1" result="shadowOffsetOuter1"></feOffset>
            <feGaussianBlur stdDeviation="2" in="shadowOffsetOuter1" result="shadowBlurOuter1"></feGaussianBlur>
            <feColorMatrix values="0 0 0 0 0.447757228   0 0 0 0 0.44265141   0 0 0 0 0.44265141  0 0 0 0.35 0" in="shadowBlurOuter1" type="matrix" result="shadowMatrixOuter1"></feColorMatrix>
            <feMerge>
                <feMergeNode in="shadowMatrixOuter1"></feMergeNode>
                <feMergeNode in="SourceGraphic"></feMergeNode>
            </feMerge>
        </filter>
        <filter x="-50%" y="-50%" width="200%" height="200%" filterUnits="objectBoundingBox" id="filter-3">
            <feOffset dx="0" dy="0" in="SourceAlpha" result="shadowOffsetOuter1"></feOffset>
            <feGaussianBlur stdDeviation="1.5" in="shadowOffsetOuter1" result="shadowBlurOuter1"></feGaussianBlur>
            <feColorMatrix values="0 0 0 0 0.558832908   0 0 0 0 0.558832908   0 0 0 0 0.558832908  0 0 0 0.35 0" in="shadowBlurOuter1" type="matrix" result="shadowMatrixOuter1"></feColorMatrix>
            <feMerge>
                <feMergeNode in="shadowMatrixOuter1"></feMergeNode>
                <feMergeNode in="SourceGraphic"></feMergeNode>
            </feMerge>
        </filter>
        <filter x="-50%" y="-50%" width="200%" height="200%" filterUnits="objectBoundingBox" id="filter-4">
            <feOffset dx="0" dy="1" in="SourceAlpha" result="shadowOffsetOuter1"></feOffset>
            <feGaussianBlur stdDeviation="2" in="shadowOffsetOuter1" result="shadowBlurOuter1"></feGaussianBlur>
            <feColorMatrix values="0 0 0 0 0.317708333   0 0 0 0 0.317708333   0 0 0 0 0.317708333  0 0 0 0.35 0" in="shadowBlurOuter1" type="matrix" result="shadowMatrixOuter1"></feColorMatrix>
            <feMerge>
                <feMergeNode in="shadowMatrixOuter1"></feMergeNode>
                <feMergeNode in="SourceGraphic"></feMergeNode>
            </feMerge>
        </filter>
        <path d="M692.582933,47.0513455 L692.582933,26.9694136 L730.923927,35.6886444 L730.923926,86.5074453 L692.582933,47.0513455 Z M692.582933,380.641379 L697.99753,386.211392 L692.582933,391.778953 L692.582933,380.641379 L692.582933,380.641379 Z M730.923926,142.327758 L726.989706,146.372211 L699.129879,117.7005 L730.923926,117.668616 L730.923926,142.327758 L730.923926,142.327758 Z M730.923926,197.140024 L730.795308,197.272468 L710.327275,176.211392 L726.989706,159.069683 L730.923926,163.114135 L730.923926,197.140024 L730.923926,197.140024 Z M730.923926,300.140024 L730.795308,300.272468 L710.327275,279.211392 L726.989706,262.069683 L730.923926,266.114135 L730.923926,300.140024 L730.923926,300.140024 Z M730.923926,252.140024 L730.795308,252.272468 L710.327275,231.211392 L726.989706,214.069683 L730.923926,218.114135 L730.923926,252.140024 L730.923926,252.140024 Z M730.923925,394 L723.795263,394 L710.327275,380.211392 L726.989706,363.069683 L730.923926,367.114135 L730.923925,394 Z M705.242162,273.906984 L692.582933,260.862804 L692.582933,249.291143 L703.971996,237.572286 L722.455399,256.185411 L705.242162,273.906984 Z M703.40456,323.520147 L692.582933,311.584416 L692.582933,298.012755 L703.971996,286.293898 L722.455399,304.907023 L703.40456,323.520147 Z M703.40456,374.520147 L692.582933,362.584416 L692.582933,349.012755 L703.971996,337.293898 L722.455399,355.907023 L703.40456,374.520147 Z M692.582933,225.85343 L697.803341,231.219872 L692.582933,236.596124 L692.582933,225.85343 L692.582933,225.85343 Z M692.582933,193.476425 L704.161141,181.561354 L724.626652,202.615072 L703.971996,223.874815 L692.582933,212.155958 L692.582933,193.476425 L692.582933,193.476425 Z M692.582933,170.641379 L697.99753,176.211392 L692.582933,181.778953 L692.582933,170.641379 L692.582933,170.641379 Z M692.582933,275.377643 L697.99753,280.947656 L692.582933,286.515217 L692.582933,275.377643 L692.582933,275.377643 Z M692.582933,123.655583 L720.821051,152.717268 L704.161141,169.863883 L692.582933,157.943907 L692.582933,123.655583 L692.582933,123.655583 Z M730.923926,351.304859 L730.795308,351.437303 L710.327275,330.376227 L726.989706,313.234518 L730.923926,317.27897 L730.923926,351.304859 L730.923926,351.304859 Z M692.582933,324.806214 L697.99753,330.376227 L692.582933,335.943788 L692.582933,324.806214 L692.582933,324.806214 Z M692.582933,59.7488173 L726.533236,94.6846466 L692.582933,94.5988032 L692.582933,59.7488173 L692.582933,59.7488173 Z M631.742302,94.5227704 L631.742302,90.8731977 C631.742302,85.3326165 627.042427,80.8393253 621.247113,80.8393253 L613.452775,80.8393253 L655.618782,26.9982349 L682.618768,27 L682.618764,94.5742765 L631.742302,94.5227704 Z M740.885574,37.8612388 C740.885574,37.8612388 878.282423,68.667236 946.455291,84.9999984 C948.010226,85.3725276 957.455291,88.3000015 959.455297,88.3000031 C959.455291,95.6342834 959.455297,93.8612388 959.455297,93.8612388 L740.885574,94.6342838 L740.885574,44.2405492 L740.885574,37.8612388 Z M960.749099,151.259455 C960.325414,154.486704 959.687364,158.873283 959.687364,158.873283 L950.83789,159 L950.520126,156.438691 C948.497534,139.954645 946.195006,124.125756 943.072849,117.614639 L967.409532,117.587678 C964.642968,123.37354 962.738906,136.309498 960.749099,151.259455 L960.749099,151.259455 Z M740.885573,272.067871 L740.885574,117.656352 L925.802632,117.857471 L925.835417,128.813547 L931.605606,128.735062 C931.605606,128.735062 940.714839,169.991422 945.029872,193.041613 C945.284587,194.424919 946.52538,195.425608 947.965405,195.425608 L952.484715,195.425608 L952.484715,199.330258 C950.825281,199.703064 949.811462,201.248246 950.174621,202.815502 C950.535258,204.385211 952.11399,205.346657 953.745683,205.018 C953.773424,205.005736 957.137687,204.377853 959.167845,205.952467 C960.428813,206.945798 961.061819,208.77549 961.041643,211.390036 C961.034078,212.324503 961.008858,215.159789 956.890537,215.95936 C953.53384,216.636297 950.540302,215.31676 950.247757,214.703593 C950.482297,213.11181 949.354992,211.635303 947.723299,211.402299 C946.038646,211.19137 944.573401,212.268092 944.333817,213.850064 C943.995878,216.091804 945.034916,218.235437 947.183605,219.741377 C949.251593,221.19581 952.131644,221.936516 955.016738,221.936516 C957.258739,221.936516 959.503263,221.487678 961.374539,220.563021 C964.983429,218.77993 966.985847,215.539953 967.018632,211.439089 C967.051417,206.953156 965.671918,203.588093 962.915442,201.424838 C962.35305,200.983358 961.762917,200.632626 961.165218,200.330948 L961.165218,195.425608 L964.683319,195.425608 C966.161174,195.425608 967.417098,194.373412 967.636506,192.945959 C971.157129,169.944821 977.214086,128.67865 978.667454,129.066172 C978.667454,129.066172 980.455297,128.799988 983.200598,128.199997 C987.483398,127.263982 985.730341,99.8588589 985.15205,88.4147586 C985.02827,85.9652183 982.807911,84.3311818 982.455297,83.9739814 C967.636511,80.839325 692.610674,15.1128228 692.610674,15.1128228 L648.618764,15 L595.110848,80.8393253 L577.772538,80.8393253 C572.080528,80.8393253 567.455297,85.3326165 567.455297,90.8731977 L567.455297,118.642326 C567.455297,124.180454 572.080528,128.678651 577.772538,128.678651 L619.745119,128.678651 C625.442172,128.678651 630.062359,124.180454 630.062359,118.642326 L682.618764,117.720122 L682.618765,271.606973 C682.618765,272.14036 682.618765,394.719954 682.618765,394.719954 L608.436226,394.719947 L608.436226,417 L808.538086,417 L808.538086,394.719947 L740.885574,394.719947 L740.885573,272.067871 Z" id="path-5"></path>
        <filter x="-50%" y="-50%" width="200%" height="200%" filterUnits="objectBoundingBox" id="filter-6">
            <feMorphology radius="1" in="SourceAlpha" operator="dilate" result="shadowSpreadOuter1"></feMorphology>
            <feOffset dx="0" dy="2" in="shadowSpreadOuter1" result="shadowOffsetOuter1"></feOffset>
            <feGaussianBlur stdDeviation="2" in="shadowOffsetOuter1" result="shadowBlurOuter1"></feGaussianBlur>
            <feColorMatrix values="0 0 0 0 0.204347364   0 0 0 0 0.203238709   0 0 0 0 0.203238709  0 0 0 0.35 0" in="shadowBlurOuter1" type="matrix" result="shadowMatrixOuter1"></feColorMatrix>
            <feOffset dx="0" dy="1" in="SourceAlpha" result="shadowOffsetInner1"></feOffset>
            <feGaussianBlur stdDeviation="1.5" in="shadowOffsetInner1" result="shadowBlurInner1"></feGaussianBlur>
            <feComposite in="shadowBlurInner1" in2="SourceAlpha" operator="arithmetic" k2="-1" k3="1" result="shadowInnerInner1"></feComposite>
            <feColorMatrix values="0 0 0 0 0.507174745   0 0 0 0 0.491145429   0 0 0 0 0.491145429  0 0 0 0.35 0" in="shadowInnerInner1" type="matrix" result="shadowMatrixInner1"></feColorMatrix>
            <feMerge>
                <feMergeNode in="shadowMatrixOuter1"></feMergeNode>
                <feMergeNode in="SourceGraphic"></feMergeNode>
                <feMergeNode in="shadowMatrixInner1"></feMergeNode>
            </feMerge>
        </filter>
        <filter x="-50%" y="-50%" width="200%" height="200%" filterUnits="objectBoundingBox" id="filter-7">
            <feOffset dx="0" dy="1" in="SourceAlpha" result="shadowOffsetOuter1"></feOffset>
            <feGaussianBlur stdDeviation="2" in="shadowOffsetOuter1" result="shadowBlurOuter1"></feGaussianBlur>
            <feColorMatrix values="0 0 0 0 0.397321429   0 0 0 0 0.394719023   0 0 0 0 0.394719023  0 0 0 0.35 0" in="shadowBlurOuter1" type="matrix" result="shadowMatrixOuter1"></feColorMatrix>
            <feMerge>
                <feMergeNode in="shadowMatrixOuter1"></feMergeNode>
                <feMergeNode in="SourceGraphic"></feMergeNode>
            </feMerge>
        </filter>
        <filter x="-50%" y="-50%" width="200%" height="200%" filterUnits="objectBoundingBox" id="filter-8">
            <feOffset dx="0" dy="1" in="SourceAlpha" result="shadowOffsetOuter1"></feOffset>
            <feGaussianBlur stdDeviation="2" in="shadowOffsetOuter1" result="shadowBlurOuter1"></feGaussianBlur>
            <feColorMatrix values="0 0 0 0 0.396843112   0 0 0 0 0.387346373   0 0 0 0 0.387346373  0 0 0 0.35 0" in="shadowBlurOuter1" type="matrix" result="shadowMatrixOuter1"></feColorMatrix>
            <feMerge>
                <feMergeNode in="shadowMatrixOuter1"></feMergeNode>
                <feMergeNode in="SourceGraphic"></feMergeNode>
            </feMerge>
        </filter>
        <filter x="-50%" y="-50%" width="200%" height="200%" filterUnits="objectBoundingBox" id="filter-9">
            <feOffset dx="0" dy="1" in="SourceAlpha" result="shadowOffsetOuter1"></feOffset>
            <feGaussianBlur stdDeviation="2" in="shadowOffsetOuter1" result="shadowBlurOuter1"></feGaussianBlur>
            <feColorMatrix values="0 0 0 0 0.563111182   0 0 0 0 0.559222906   0 0 0 0 0.559222906  0 0 0 0.35 0" in="shadowBlurOuter1" type="matrix" result="shadowMatrixOuter1"></feColorMatrix>
            <feMerge>
                <feMergeNode in="shadowMatrixOuter1"></feMergeNode>
                <feMergeNode in="SourceGraphic"></feMergeNode>
            </feMerge>
        </filter>
        <filter x="-50%" y="-50%" width="200%" height="200%" filterUnits="objectBoundingBox" id="filter-10">
            <feOffset dx="0" dy="1" in="SourceAlpha" result="shadowOffsetOuter1"></feOffset>
            <feGaussianBlur stdDeviation="2" in="shadowOffsetOuter1" result="shadowBlurOuter1"></feGaussianBlur>
            <feColorMatrix values="0 0 0 0 0.64198023   0 0 0 0 0.636103517   0 0 0 0 0.636103517  0 0 0 0.35 0" in="shadowBlurOuter1" type="matrix" result="shadowMatrixOuter1"></feColorMatrix>
            <feMerge>
                <feMergeNode in="shadowMatrixOuter1"></feMergeNode>
                <feMergeNode in="SourceGraphic"></feMergeNode>
            </feMerge>
        </filter>
        <filter x="-50%" y="-50%" width="200%" height="200%" filterUnits="objectBoundingBox" id="filter-11">
            <feOffset dx="0" dy="1" in="SourceAlpha" result="shadowOffsetOuter1"></feOffset>
            <feGaussianBlur stdDeviation="1.5" in="shadowOffsetOuter1" result="shadowBlurOuter1"></feGaussianBlur>
            <feColorMatrix values="0 0 0 0 0.23   0 0 0 0 0.2277   0 0 0 0 0.2277  0 0 0 0.35 0" in="shadowBlurOuter1" type="matrix" result="shadowMatrixOuter1"></feColorMatrix>
            <feMerge>
                <feMergeNode in="shadowMatrixOuter1"></feMergeNode>
                <feMergeNode in="SourceGraphic"></feMergeNode>
            </feMerge>
        </filter>
        <filter x="-50%" y="-50%" width="200%" height="200%" filterUnits="objectBoundingBox" id="filter-12">
            <feOffset dx="0" dy="1" in="SourceAlpha" result="shadowOffsetOuter1"></feOffset>
            <feGaussianBlur stdDeviation="2" in="shadowOffsetOuter1" result="shadowBlurOuter1"></feGaussianBlur>
            <feColorMatrix values="0 0 0 0 0   0 0 0 0 0   0 0 0 0 0  0 0 0 0.35 0" in="shadowBlurOuter1" type="matrix" result="shadowMatrixOuter1"></feColorMatrix>
            <feMerge>
                <feMergeNode in="shadowMatrixOuter1"></feMergeNode>
                <feMergeNode in="SourceGraphic"></feMergeNode>
            </feMerge>
        </filter>
        <filter x="-50%" y="-50%" width="200%" height="200%" filterUnits="objectBoundingBox" id="filter-13">
            <feOffset dx="0" dy="2" in="SourceAlpha" result="shadowOffsetOuter1"></feOffset>
            <feGaussianBlur stdDeviation="2" in="shadowOffsetOuter1" result="shadowBlurOuter1"></feGaussianBlur>
            <feColorMatrix values="0 0 0 0 0.418765944   0 0 0 0 0.418765944   0 0 0 0 0.418765944  0 0 0 0.35 0" in="shadowBlurOuter1" type="matrix" result="shadowMatrixOuter1"></feColorMatrix>
            <feMerge>
                <feMergeNode in="shadowMatrixOuter1"></feMergeNode>
                <feMergeNode in="SourceGraphic"></feMergeNode>
            </feMerge>
        </filter>
        <filter x="-50%" y="-50%" width="200%" height="200%" filterUnits="objectBoundingBox" id="filter-14">
            <feMorphology radius="1" in="SourceAlpha" operator="dilate" result="shadowSpreadOuter1"></feMorphology>
            <feOffset dx="0" dy="1" in="shadowSpreadOuter1" result="shadowOffsetOuter1"></feOffset>
            <feGaussianBlur stdDeviation="2" in="shadowOffsetOuter1" result="shadowBlurOuter1"></feGaussianBlur>
            <feColorMatrix values="0 0 0 0 0.452248087   0 0 0 0 0.448955798   0 0 0 0 0.448955798  0 0 0 0.35 0" in="shadowBlurOuter1" type="matrix" result="shadowMatrixOuter1"></feColorMatrix>
            <feMerge>
                <feMergeNode in="shadowMatrixOuter1"></feMergeNode>
                <feMergeNode in="SourceGraphic"></feMergeNode>
            </feMerge>
        </filter>
        <filter x="-50%" y="-50%" width="200%" height="200%" filterUnits="objectBoundingBox" id="filter-15">
            <feOffset dx="0" dy="1" in="SourceAlpha" result="shadowOffsetOuter1"></feOffset>
            <feGaussianBlur stdDeviation="2" in="shadowOffsetOuter1" result="shadowBlurOuter1"></feGaussianBlur>
            <feColorMatrix values="0 0 0 0 0.452248087   0 0 0 0 0.448955798   0 0 0 0 0.448955798  0 0 0 0.35 0" in="shadowBlurOuter1" type="matrix" result="shadowMatrixOuter1"></feColorMatrix>
            <feMerge>
                <feMergeNode in="shadowMatrixOuter1"></feMergeNode>
                <feMergeNode in="SourceGraphic"></feMergeNode>
            </feMerge>
        </filter>
        <filter x="-50%" y="-50%" width="200%" height="200%" filterUnits="objectBoundingBox" id="filter-16">
            <feOffset dx="0" dy="1" in="SourceAlpha" result="shadowOffsetOuter1"></feOffset>
            <feGaussianBlur stdDeviation="2" in="shadowOffsetOuter1" result="shadowBlurOuter1"></feGaussianBlur>
            <feColorMatrix values="0 0 0 0 0.452248087   0 0 0 0 0.448955798   0 0 0 0 0.448955798  0 0 0 0.35 0" in="shadowBlurOuter1" type="matrix" result="shadowMatrixOuter1"></feColorMatrix>
            <feMerge>
                <feMergeNode in="shadowMatrixOuter1"></feMergeNode>
                <feMergeNode in="SourceGraphic"></feMergeNode>
            </feMerge>
        </filter>
        <filter x="-50%" y="-50%" width="200%" height="200%" filterUnits="objectBoundingBox" id="filter-17">
            <feOffset dx="0" dy="1" in="SourceAlpha" result="shadowOffsetOuter1"></feOffset>
            <feGaussianBlur stdDeviation="2" in="shadowOffsetOuter1" result="shadowBlurOuter1"></feGaussianBlur>
            <feColorMatrix values="0 0 0 0 0.452248087   0 0 0 0 0.448955798   0 0 0 0 0.448955798  0 0 0 0.35 0" in="shadowBlurOuter1" type="matrix" result="shadowMatrixOuter1"></feColorMatrix>
            <feOffset dx="0" dy="0" in="SourceAlpha" result="shadowOffsetInner1"></feOffset>
            <feGaussianBlur stdDeviation="1.5" in="shadowOffsetInner1" result="shadowBlurInner1"></feGaussianBlur>
            <feComposite in="shadowBlurInner1" in2="SourceAlpha" operator="arithmetic" k2="-1" k3="1" result="shadowInnerInner1"></feComposite>
            <feColorMatrix values="0 0 0 0 0.501913265   0 0 0 0 0.495437348   0 0 0 0 0.495437348  0 0 0 0.35 0" in="shadowInnerInner1" type="matrix" result="shadowMatrixInner1"></feColorMatrix>
            <feMerge>
                <feMergeNode in="shadowMatrixOuter1"></feMergeNode>
                <feMergeNode in="SourceGraphic"></feMergeNode>
                <feMergeNode in="shadowMatrixInner1"></feMergeNode>
            </feMerge>
        </filter>
        <filter x="-50%" y="-50%" width="200%" height="200%" filterUnits="objectBoundingBox" id="filter-18">
            <feOffset dx="0" dy="0" in="SourceAlpha" result="shadowOffsetInner1"></feOffset>
            <feGaussianBlur stdDeviation="1.5" in="shadowOffsetInner1" result="shadowBlurInner1"></feGaussianBlur>
            <feComposite in="shadowBlurInner1" in2="SourceAlpha" operator="arithmetic" k2="-1" k3="1" result="shadowInnerInner1"></feComposite>
            <feColorMatrix values="0 0 0 0 0.519318665   0 0 0 0 0.488725911   0 0 0 0 0.488725911  0 0 0 0.35 0" in="shadowInnerInner1" type="matrix" result="shadowMatrixInner1"></feColorMatrix>
            <feMerge>
                <feMergeNode in="SourceGraphic"></feMergeNode>
                <feMergeNode in="shadowMatrixInner1"></feMergeNode>
            </feMerge>
        </filter>
        <filter x="-50%" y="-50%" width="200%" height="200%" filterUnits="objectBoundingBox" id="filter-19">
            <feOffset dx="1" dy="0" in="SourceAlpha" result="shadowOffsetInner1"></feOffset>
            <feGaussianBlur stdDeviation="1.5" in="shadowOffsetInner1" result="shadowBlurInner1"></feGaussianBlur>
            <feComposite in="shadowBlurInner1" in2="SourceAlpha" operator="arithmetic" k2="-1" k3="1" result="shadowInnerInner1"></feComposite>
            <feColorMatrix values="0 0 0 0 0.519318665   0 0 0 0 0.488725911   0 0 0 0 0.488725911  0 0 0 0.35 0" in="shadowInnerInner1" type="matrix" result="shadowMatrixInner1"></feColorMatrix>
            <feMerge>
                <feMergeNode in="SourceGraphic"></feMergeNode>
                <feMergeNode in="shadowMatrixInner1"></feMergeNode>
            </feMerge>
        </filter>
        <filter x="-50%" y="-50%" width="200%" height="200%" filterUnits="objectBoundingBox" id="filter-20">
            <feOffset dx="0" dy="0" in="SourceAlpha" result="shadowOffsetInner1"></feOffset>
            <feGaussianBlur stdDeviation="1.5" in="shadowOffsetInner1" result="shadowBlurInner1"></feGaussianBlur>
            <feComposite in="shadowBlurInner1" in2="SourceAlpha" operator="arithmetic" k2="-1" k3="1" result="shadowInnerInner1"></feComposite>
            <feColorMatrix values="0 0 0 0 0.519318665   0 0 0 0 0.488725911   0 0 0 0 0.488725911  0 0 0 0.35 0" in="shadowInnerInner1" type="matrix" result="shadowMatrixInner1"></feColorMatrix>
            <feMerge>
                <feMergeNode in="SourceGraphic"></feMergeNode>
                <feMergeNode in="shadowMatrixInner1"></feMergeNode>
            </feMerge>
        </filter>
    </defs>
    <g id="Page-1" stroke="none" stroke-width="1" fill="none" fill-rule="evenodd" sketch:type="MSPage">
        <g id="pilon-1" sketch:type="MSLayerGroup" transform="translate(279.000000, 451.000000)" fill="#DB9867">
            <path d="M28,21 L26.0184872,14 L9.9811152,14 L8,21 L28,21" id="Fill-97" sketch:type="MSShapeGroup"></path>
            <path d="M34.059915,33.171606 L31.6318152,33.171606 L30.2163979,28 L6.78360209,28 L5.36858793,33.171606 L2.94008499,33.171606 C1.31543909,33.171606 0,34.4751943 0,36.0856033 C0,37.6956127 1.31543909,39 2.94008499,39 L34.059915,39 C35.6845609,39 37,37.6956127 37,36.0856033 C37,34.4751943 35.6845609,33.171606 34.059915,33.171606" id="Fill-98" sketch:type="MSShapeGroup"></path>
            <path d="M21.8314703,0.958395039 C21.6107051,0.25823769 21.6107051,0 20.3619641,0 L17.4996008,0 L14.6380359,0 C13.3888957,0 13.3888957,0.25823769 13.1685297,0.958395039 C12.9473652,1.65855239 11,9 11,9 L24,9 C24,9 22.0526348,1.65855239 21.8314703,0.958395039" id="Fill-99" sketch:type="MSShapeGroup"></path>
        </g>
        <g id="pilon-3" sketch:type="MSLayerGroup" transform="translate(700.000000, 438.000000)" fill="#DB9867">
            <path d="M28,21 L26.0184872,14 L9.9811152,14 L8,21 L28,21" id="Fill-102" sketch:type="MSShapeGroup"></path>
            <path d="M34.059915,33.171606 L31.6318152,33.171606 L30.2163979,28 L6.78360209,28 L5.36858793,33.171606 L2.94008499,33.171606 C1.31543909,33.171606 0,34.4751943 0,36.0856033 C0,37.6956127 1.31543909,39 2.94008499,39 L34.059915,39 C35.6845609,39 37,37.6956127 37,36.0856033 C37,34.4751943 35.6845609,33.171606 34.059915,33.171606" id="Fill-101" sketch:type="MSShapeGroup"></path>
            <path d="M21.8314703,0.958395039 C21.6107051,0.25823769 21.6107051,0 20.3619641,0 L17.4996008,0 L14.6380359,0 C13.3888957,0 13.3888957,0.25823769 13.1685297,0.958395039 C12.9473652,1.65855239 11,9 11,9 L24,9 C24,9 22.0526348,1.65855239 21.8314703,0.958395039" id="Fill-100" sketch:type="MSShapeGroup"></path>
        </g>
        <g id="pilon2" sketch:type="MSLayerGroup" transform="translate(488.000000, 468.000000)" fill="#DB9867">
            <path d="M28,21 L26.0184872,14 L9.9811152,14 L8,21 L28,21" id="Fill-105" sketch:type="MSShapeGroup"></path>
            <path d="M34.059915,33.171606 L31.6318152,33.171606 L30.2163979,28 L6.78360209,28 L5.36858793,33.171606 L2.94008499,33.171606 C1.31543909,33.171606 0,34.4751943 0,36.0856033 C0,37.6956127 1.31543909,39 2.94008499,39 L34.059915,39 C35.6845609,39 37,37.6956127 37,36.0856033 C37,34.4751943 35.6845609,33.171606 34.059915,33.171606" id="Fill-104" sketch:type="MSShapeGroup"></path>
            <path d="M21.8314703,0.958395039 C21.6107051,0.25823769 21.6107051,0 20.3619641,0 L17.4996008,0 L14.6380359,0 C13.3888957,0 13.3888957,0.25823769 13.1685297,0.958395039 C12.9473652,1.65855239 11,9 11,9 L24,9 C24,9 22.0526348,1.65855239 21.8314703,0.958395039" id="Fill-103" sketch:type="MSShapeGroup"></path>
        </g>
        <path d="M235.091772,344 L254.165876,344 L254.165876,345.265353 L254.255848,420.373117 C249.276787,419.469293 244.718796,418.053905 240.580075,416.125145 C238.72125,415.280973 236.921806,414.348227 235.181744,413.323291 C235.122362,413.261831 235.062981,413.232908 235,413.232908 L235,368.900348 C235.007198,369.128111 235.037788,369.323337 235.091772,369.487833 L235.091772,344 L235.091772,344 Z M277.558646,422 C274.01914,422 270.780141,421.940348 267.841649,421.819235 C265.622935,421.759583 263.584165,421.63847 261.725339,421.457706 C261.124325,421.336593 260.52511,421.276941 259.925896,421.276941 L259.925896,370.753187 L279,370.753187 L279,421.819235 L278.640111,421.819235 L278.640111,422 L277.558646,422 L277.558646,422 Z" id="Path" fill="#F16D00" filter="url(#filter-1)" sketch:type="MSShapeGroup"></path>
        <path d="M166.170029,352.109472 L166.170029,359.703091 L166.260029,359.703091 L166.260029,414.214426 C159.360619,408.307675 154.261211,402.16046 150.960006,395.77278 C150.301205,394.507177 149.728804,393.210838 149.250003,391.88557 C148.891803,390.981568 148.560602,390.04683 148.260002,389.083163 C147.720001,387.154023 147.3006,385.195954 147,383.207149 L147,319.384591 L166.170029,319.384591 L166.170029,352.109472 L166.170029,352.109472 Z" id="Path" fill="#F16D00" filter="url(#filter-2)" sketch:type="MSShapeGroup" transform="translate(156.500000, 366.884591) rotate(-20.000000) translate(-156.500000, -366.884591) "></path>
        <path d="M419.173279,395.123519 C425.58294,395.123519 431.097477,392.822369 435.7097,388.218274 C440.321924,383.614179 442.629833,378.115093 442.629833,371.717428 C442.629833,365.380745 440.323721,359.879865 435.7097,355.216582 C431.097477,350.673469 425.58294,348.401015 419.173279,348.401015 C412.822934,348.401015 407.310195,350.673469 402.636858,355.216582 C398.204379,359.879865 395.988139,365.380745 395.988139,371.717428 C395.988139,378.115093 398.204379,383.614179 402.636858,388.218274 C407.310195,392.822369 412.822934,395.123519 419.173279,395.123519 L419.173279,395.123519 Z M419.173279,327.236887 C431.51628,327.236887 442.060045,331.600643 450.809969,340.329949 C459.556298,348.998274 463.931259,359.461963 463.931259,371.717428 C463.931259,383.972893 459.556298,394.465279 450.809969,403.194585 C442.061843,411.923892 431.518077,416.287648 419.173279,416.287648 C406.950707,416.287648 396.466257,411.922098 387.718131,403.194585 C378.912487,394.465279 374.506968,383.974687 374.506968,371.717428 C374.506968,359.460169 378.910689,348.998274 387.718131,340.329949 C396.466257,331.600643 406.950707,327.236887 419.173279,327.236887 L419.173279,327.236887 Z M348.264387,318 L370.552607,318 L370.912094,379.878173 C370.912094,391.59736 364.770252,402.536345 352.488365,412.700508 C349.673578,415.091337 346.495709,417.064264 342.961948,418.619289 C338.887158,420.533029 334.332453,421.878206 329.299629,422.654822 C324.507662,423.551607 317.467101,424 308.179744,424 L308,400.862944 C314.050173,400.742775 318.245391,400.563418 320.582059,400.324873 C326.813774,399.428088 331.816041,397.693706 335.590659,395.123519 C342.241176,390.580406 346.285409,384.751303 347.723359,377.63621 C348.082846,376.081184 348.26259,371.986464 348.26259,365.350254 L348.26259,318 L348.264387,318 Z M482.353192,340.150592 C490.98089,331.541455 501.406025,327.236887 513.626799,327.236887 C525.790056,327.236887 536.245747,331.541455 544.992076,340.150592 C553.619774,348.818917 557.933623,359.252115 557.933623,371.448393 L557.933623,416.287648 L536.903609,416.287648 L536.903609,371.448393 C536.903609,365.050728 534.626256,359.580338 530.073348,355.037225 C525.52044,350.553299 520.038257,348.311337 513.626799,348.311337 C507.276454,348.311337 501.824827,350.553299 497.270122,355.037225 C492.657898,359.580338 490.349989,365.050728 490.349989,371.448393 L490.349989,416.287648 L469.231901,416.287648 L469.231901,371.448393 C469.231901,359.252115 473.605066,348.818917 482.353192,340.150592 L482.353192,340.150592 Z M679.082678,327.236887 L679.082678,333.783418 L684.924348,330.64467 C690.316659,328.372217 696.007345,327.236887 702,327.236887 L702,348.13198 C698.885042,348.13198 695.888714,348.729239 693.012815,349.92555 C690.316659,351.121861 687.888322,352.795262 685.731397,354.947547 C683.57627,357.040643 681.956779,359.461963 680.880115,362.211506 C679.681224,364.005076 679.082678,366.695431 679.082678,370.282572 L679.082678,416.287648 L658.052664,416.287648 L658.052664,327.236887 L679.082678,327.236887 L679.082678,327.236887 Z" id="Jonar" fill="#3E9AE6" filter="url(#filter-3)" sketch:type="MSShapeGroup"></path>
        <path d="M598.305176,215.823975 L568.9453,264.332051" id="Line" stroke="#5F5B55" stroke-width="1.5" stroke-linecap="round" sketch:type="MSShapeGroup"></path>
        <path d="M598.045666,216.462841 L593.088432,269.559713" id="Line" stroke="#5F5B55" stroke-width="1.3" stroke-linecap="square" sketch:type="MSShapeGroup"></path>
        <g id="crane" filter="url(#filter-4)">
            <use fill="#F2B972" fill-rule="evenodd" sketch:type="MSShapeGroup" transform="translate(776.727649, 216.000000) scale(-1, 1) translate(-776.727649, -216.000000) " xlink:href="#path-5"></use>
            <use fill="none" xlink:href="#path-5"></use>
        </g>
        <path d="M598.608398,215.791504 L635.5,264.5" id="Line" stroke="#5F5B55" stroke-width="1.5" stroke-linecap="round" sketch:type="MSShapeGroup"></path>
        <path d="M647,338 L625.76506,338 L625.76506,331.367573 C618.716867,335.789789 610.76506,338 601.909639,338 C589.560843,338 579.019277,333.636939 570.283133,324.914401 C561.429518,316.19007 557,305.705458 557,293.455186 C557,281.204914 561.427711,270.748983 570.283133,262.085599 C579.019277,253.361269 589.560843,249 601.909639,249 C614.379518,249 625.011446,253.361269 633.807229,262.085599 C642.601205,270.748983 647,281.206707 647,293.455186 L647,338 Z M625.493976,293.455186 C625.493976,287.122115 623.204217,281.624371 618.626506,276.963746 C613.989157,272.423223 608.41747,270.152064 601.909639,270.152064 C595.46506,270.152064 589.922289,272.423223 585.283133,276.963746 C580.76506,281.624371 578.506024,287.122115 578.506024,293.455186 C578.506024,299.849204 580.76506,305.345156 585.283133,309.946626 C589.922289,314.546304 595.46506,316.847936 601.909639,316.847936 C608.41747,316.847936 613.989157,314.548097 618.626506,309.946626 C623.204217,305.345156 625.493976,299.849204 625.493976,293.455186 Z" id="A" fill="#3D96E1" filter="url(#filter-6)" sketch:type="MSShapeGroup"></path>
        <path d="M605.732268,270.075663 L598.924485,216.340216" id="Line" stroke="#5F5B55" stroke-width="1.5" stroke-linecap="round" filter="url(#filter-7)" sketch:type="MSShapeGroup"></path>
        <g id="Lift" sketch:type="MSLayerGroup" transform="translate(13.000000, 304.000000)">
            <path d="M99.2530097,107.7734 C95.8799029,107.7734 93.1408252,110.5166 93.1408252,113.8988 C93.1408252,117.281 95.8799029,120.0278 99.2530097,120.0278 C102.631505,120.0278 105.365194,117.281 105.365194,113.8988 C105.365194,110.5166 102.631505,107.7734 99.2530097,107.7734" id="Fill-78" fill="#706B82" sketch:type="MSShapeGroup"></path>
            <path d="M27.4712136,113.1518 C24.7141748,113.1518 22.4780097,115.3928 22.4780097,118.1576 C22.4780097,120.9206 24.7141748,123.1652 27.4712136,123.1652 C30.2318447,123.1652 32.4662136,120.9206 32.4662136,118.1576 C32.4662136,115.3928 30.2318447,113.1518 27.4712136,113.1518" id="Fill-79" fill="#706B82" filter="url(#filter-8)" sketch:type="MSShapeGroup"></path>
            <path d="M99.0284951,125.327 C92.4942233,125.327 87.1777184,119.999 87.1777184,113.4506 C87.1777184,106.9022 92.4942233,101.5724 99.0284951,101.5724 C105.564563,101.5724 110.881068,106.9022 110.881068,113.4506 C110.881068,119.999 105.564563,125.327 99.0284951,125.327 L99.0284951,125.327 Z M99.0284951,90.8156 C86.5742233,90.8156 76.4441262,100.9712 76.4441262,113.4506 C76.4441262,125.9318 86.5742233,136.0856 99.0284951,136.0856 C111.484563,136.0856 121.61466,125.9318 121.61466,113.4506 C121.61466,100.9712 111.484563,90.8156 99.0284951,90.8156 L99.0284951,90.8156 Z" id="Fill-80" fill="#656173" filter="url(#filter-9)" sketch:type="MSShapeGroup"></path>
            <path d="M27.1712621,127.6418 C21.9930583,127.6418 17.781165,123.4208 17.781165,118.2296 C17.781165,113.042 21.9930583,108.8174 27.1712621,108.8174 C32.3512621,108.8174 36.5631553,113.042 36.5631553,118.2296 C36.5631553,123.4208 32.3512621,127.6418 27.1712621,127.6418 L27.1712621,127.6418 Z M27.1712621,99.8534 C17.0609223,99.8534 8.83470874,108.0956 8.83470874,118.2296 C8.83470874,128.3636 17.0609223,136.6076 27.1712621,136.6076 C37.2833981,136.6076 45.5096117,128.3636 45.5096117,118.2296 C45.5096117,108.0956 37.2833981,99.8534 27.1712621,99.8534 L27.1712621,99.8534 Z" id="Fill-81" fill="#656173" filter="url(#filter-10)" sketch:type="MSShapeGroup"></path>
            <path d="M53.7825243,93.5822 L42.7938835,71.0228 L42.7938835,19.6364 L87.186699,19.7228 L103.129029,76.8476 L71.5245631,93.5822 L53.7825243,93.5822 L53.7825243,93.5822 Z M110.009951,89.669 C113.821311,91.7138 113.546505,91.5446 115.701845,91.5446 C117.857184,91.5446 117.657816,89.4746 117.187233,87.9662 C116.760225,86.599108 97.3088561,24.4325894 93.7102055,12.9313334 C93.3429731,11.7576617 91.4486345,11.1116 90.6025391,11.1116 L36.84375,11.1116 C36.0796683,11.1116 34.5515049,12.3640229 34.5515049,12.9902344 L34.5515049,66.0908 C8.61019417,66.0908 0.139660194,80.732 0.139660194,92.9828 C0.139660194,105.2354 -0.695964445,113.066179 0.592773464,115.904782 C0.592773464,115.904782 2.14599612,117.131589 2.9655762,117.131589 C3.78515628,117.131589 5.35383495,116.2892 5.35383495,116.2892 C6.33990291,105.0878 15.7407767,96.2696 27.1712621,96.2696 C38.4305563,96.2696 47.7177102,104.148972 48.9398848,115.108396 C48.9398848,115.904782 48.9398848,116.289197 50.5070807,116.289197 C56.8179184,116.289197 67.6969709,116.289199 71.590332,116.2892 C72.3564421,116.289197 72.8644683,115.904782 72.8644683,115.108396 C72.8083027,114.428944 72.864466,114.14389 72.864466,113.4506 C72.864466,98.993 84.6020874,87.2318 99.0284951,87.2318 C102.95301,87.2318 106.669175,88.1102 110.009951,89.669 Z" id="Fill-82" fill="#F2B972" filter="url(#filter-11)" sketch:type="MSShapeGroup"></path>
            <path d="M74.3696117,62.0624 L53.6478155,62.0624 C53.5633981,62.0624 53.4879612,62.0858 53.4071359,62.0876 L53.4071359,38.2322 C53.4071359,36.4592 51.9684466,35.021 50.201068,35.021 C48.428301,35.021 46.995,36.4592 46.995,38.2322 L46.995,68.4164 C46.995,68.4722 47.0219417,68.5208 47.0273301,68.5766 C47.025534,68.6216 47.0129612,68.663 47.0129612,68.7116 C47.0129612,69.851 47.3254854,70.9076 47.8301942,71.849 L47.796068,71.849 L56.5880583,89.9156 L70.0032524,89.9156 C70.0032524,89.9156 79.8298058,72.4862 80.1351456,71.9408 L80.2572816,71.7734 L80.2249515,71.7734 C80.7063107,70.8536 81.0026699,69.8204 81.0026699,68.7116 C81.0026699,65.0396 78.0318932,62.0624 74.3696117,62.0624" id="Fill-83" fill="#78787B" filter="url(#filter-12)" sketch:type="MSShapeGroup"></path>
            <path d="M118.061166,6.81066062 C118.061166,8.50751774 116.675007,116.600503 118.061166,118.179996 C119.447325,119.759489 165.44769,118.784741 166.463088,117.541723 C167.478486,116.298706 166.838035,111.510505 166.301797,111.073431 C165.765559,110.636357 131.687102,111.510509 131.687102,111.510509 C131.687102,111.510509 133.810066,9.85054992 131.527906,6.81066062 C129.245745,3.77077132 118.061166,5.11380349 118.061166,6.81066062 Z" id="Path-70" stroke="#656173" fill="#656173" filter="url(#filter-13)" sketch:type="MSShapeGroup" transform="translate(142.222548, 62.000000) rotate(-19.000000) translate(-142.222548, -62.000000) "></path>
        </g>
        <g id="Dump-Truck" sketch:type="MSLayerGroup" transform="translate(1065.000000, 297.000000)">
            <path d="M139.731445,9.73643607 C140.48763,9.73643607 142,8.18948911 142,7.41601562 L142,1.69335938 C142,1.12890625 140.363932,0 139.545898,0 L104,0 C103.48994,2.790961e-17 102.103494,1.07972713 101.920331,1.6195907 C100.462412,5.91673864 97.5465742,14.5110345 97.5465742,14.5110345 L3.11132812,14.5110345 C1,14.511035 1,15.7686521 1,16.3974609 C1,31.3232422 1,46.2490234 1,61.1748047 C1,61.7832031 2.35221354,63 3.02832031,63 L98.2783203,63 C99.493071,63 101.27832,63 102.28226,60.8090078 C103.2862,58.6180156 110.666667,9.73643607 110.666667,9.73643607 L139.731445,9.73643607 Z" id="Fill-54" fill="#EB866F" filter="url(#filter-14)" sketch:type="MSShapeGroup"></path>
            <path d="M137.498999,108.027502 C133.531386,108.027502 130.294807,104.877681 130.294807,100.999023 C130.294807,97.1281813 133.531386,93.9744517 137.498999,93.9744517 C141.466611,93.9744517 144.697181,97.1281813 144.697181,100.999023 C144.697181,104.877681 141.466611,108.027502 137.498999,108.027502 L137.498999,108.027502 Z M137.498999,81 C126.193005,81 117,89.9746471 117,100.999023 C117,112.029261 126.193005,121 137.498999,121 C148.798984,121 158,112.029261 158,100.999023 C158,89.9746471 148.798984,81 137.498999,81 L137.498999,81 Z" id="Fill-55" fill="#656173" filter="url(#filter-15)" sketch:type="MSShapeGroup"></path>
            <path d="M53.4989986,108.027502 C49.5313859,108.027502 46.2948073,104.877681 46.2948073,100.999023 C46.2948073,97.1281813 49.5313859,93.9744517 53.4989986,93.9744517 C57.4666113,93.9744517 60.6971814,97.1281813 60.6971814,100.999023 C60.6971814,104.877681 57.4666113,108.027502 53.4989986,108.027502 L53.4989986,108.027502 Z M53.4989986,81 C42.1930047,81 33,89.9746471 33,100.999023 C33,112.029261 42.1930047,121 53.4989986,121 C64.7989839,121 74,112.029261 74,100.999023 C74,89.9746471 64.7989839,81 53.4989986,81 L53.4989986,81 Z" id="Fill-56" fill="#656173" filter="url(#filter-16)" sketch:type="MSShapeGroup"></path>
            <path d="M172.68579,53.7099314 C171.457669,53.6567945 126.159788,53.7709403 126.159788,53.7709403 L126.262792,28.6962511 L155.089976,28.6962511 C157.441235,28.6962511 157.916637,28.5033841 159.023927,30.0522248 C160.131218,31.6030336 172.204446,48.9866558 173.398893,50.9330389 C174.595321,52.877454 173.921835,53.7650362 172.68579,53.7099314 L172.68579,53.7099314 Z M162.712254,21.1311381 C160.806685,18.6809389 158.786226,18.0118082 153.962878,18.0118082 C149.856586,18.0118082 124.548092,18.0032359 117.148504,18.0006991 C115.863497,18.0002585 114.912583,19.2323996 114.809585,19.8485994 C112.864393,31.4860197 108.974008,54.7608602 108.974008,54.7608602 C108.974008,54.7608602 107.470367,63.1309357 106.763116,67.3612382 C106.655581,68.0044377 106,69.1117554 104.045135,69.2862494 C76.8261347,69.2341236 25.2154524,69.1352865 14.7872255,69.1153159 C13.5784562,69.113001 12.9230092,70.1414153 12.9230092,70.65625 L12.9230092,83.8789062 C12.9230092,84.5285926 11.8942583,85.8279652 11.3798828,85.8279652 L1.68554688,85.8279652 C1.12369792,85.8279652 0,87.0715613 0,87.6933594 C8.53605113e-17,88.2981771 0,89.9029948 0,90.5078125 C7.4548866e-17,91.0360248 0.199951172,92 1.9457785,92.0864623 C8.23688022,92.0671615 27.7294104,92.0078241 29.5937703,92.0078241 C33.1810741,82.8702539 42.1087262,76.3698459 52.5596453,76.3698459 C65.7837424,76.3698459 76.5773471,86.7827005 77.1597145,99.7776124 C77.1597145,99.7776124 78.4425611,100.299988 79.0839844,100.299988 L110.621094,100.299988 C111.193882,100.299988 112.339458,99.7776124 112.339458,99.7776124 C112.460289,97.1109298 113.022848,94.560361 113.941958,92.186915 C113.977613,92.0963855 114.005345,91.999952 114.042981,91.9094226 C114.490651,90.7915807 115.023498,89.7209715 115.625673,88.6916911 C115.702926,88.5578649 115.786122,88.4279748 115.865355,88.2980848 C116.461588,87.3239092 117.117247,86.3890942 117.838273,85.5074161 C118.040319,85.2692843 118.266135,85.0508328 118.474123,84.8186051 C119.121858,84.0864974 119.789402,83.372102 120.520332,82.7246196 C125.074287,78.7885566 131.141604,76.4525032 137.884388,76.4525032 C151.797818,76.4525032 162.098193,86.3241492 162.712254,100 L189,99.8799501 C189,99.8799501 188.898977,62.4834157 188.898977,59.2420679 C188.898977,55.9967839 188.092775,55.0993616 186.757688,53.310421 C180.698294,45.1824509 163.83341,22.5717371 162.712254,21.1311381 Z" id="Fill-57" fill="#759FC2" filter="url(#filter-17)" sketch:type="MSShapeGroup"></path>
        </g>
        <path d="M1073.7041,322.378906 L1096.7041,322.314453 L1096.7041,354.304688 L1073.7041,354.304688 L1073.7041,322.378906 Z" id="Path-79" fill="#C77765" filter="url(#filter-18)" sketch:type="MSShapeGroup"></path>
        <path d="M1104.7041,322.378906 L1127.7041,322.314453 L1127.7041,354.304688 L1104.7041,354.304688 L1104.7041,322.378906 Z" id="Path-80" fill="#C67664" filter="url(#filter-19)" sketch:type="MSShapeGroup"></path>
        <path d="M1135.7041,322.378906 L1158.7041,322.314453 L1158.7041,354.304688 L1135.7041,354.304688 L1135.7041,322.378906 Z" id="Path-81" fill="#C67664" filter="url(#filter-20)" sketch:type="MSShapeGroup"></path>
    </g>
</svg>