<?xml version="1.0" encoding="UTF-8" standalone="no"?>
<svg width="500px" height="440px" viewBox="0 0 500 440" version="1.1" xmlns="http://www.w3.org/2000/svg" xmlns:xlink="http://www.w3.org/1999/xlink" xmlns:sketch="http://www.bohemiancoding.com/sketch/ns">
    <!-- Generator: Sketch 3.2.1 (9971) - http://www.bohemiancoding.com/sketch -->
    <title>upfront-costs</title>
    <desc>Created with Sketch.</desc>
    <defs></defs>
    <g id="Page-1" stroke="none" stroke-width="1" fill="none" fill-rule="evenodd" sketch:type="MSPage">
        <g id="upfront-costs" sketch:type="MSArtboardGroup" stroke="#96DFA1" stroke-width="16.4347826" stroke-linecap="round" stroke-linejoin="round">
            <path d="M161.412783,236.311385 C234.859826,237.340231 252.321783,272.321 271.336826,272.321 C290.343652,272.321 348.892565,265.119077 342.211826,302.157538 C368.565,309.713385 404.359957,259.974846 421.821913,259.974846 C439.28387,259.974846 449.555609,269.234462 449.555609,288.782538 C449.555609,315.014 337.075957,375.205615 290.343652,375.205615 C245.641043,375.205615 179.901913,329.426077 158.331261,329.426077 L161.412783,236.311385 Z M69,206.153846 L151.173913,206.153846 L151.173913,354.307692 L69,354.307692 L69,206.153846 Z M381.26087,74.4615385 C381.26087,83.5483077 373.898087,90.9230769 364.826087,90.9230769 L315.521739,90.9230769 C306.441522,90.9230769 299.086957,83.5483077 299.086957,74.4615385 C299.086957,65.3665385 306.441522,58 315.521739,58 L364.826087,58 C373.898087,58 381.26087,65.3665385 381.26087,74.4615385 Z M299.086957,140.307692 C299.086957,149.394462 291.724174,156.769231 282.652174,156.769231 L233.347826,156.769231 C224.267609,156.769231 216.913043,149.394462 216.913043,140.307692 C216.913043,131.212692 224.267609,123.846154 233.347826,123.846154 L282.652174,123.846154 C291.724174,123.846154 299.086957,131.212692 299.086957,140.307692 Z M381.26087,206.153846 C381.26087,215.240615 373.898087,222.615385 364.826087,222.615385 L315.521739,222.615385 C306.441522,222.615385 299.086957,215.240615 299.086957,206.153846 C299.086957,197.058846 306.441522,189.692308 315.521739,189.692308 L364.826087,189.692308 C373.898087,189.692308 381.26087,197.058846 381.26087,206.153846 Z" id="costs" sketch:type="MSShapeGroup" transform="translate(258.000000, 218.500000) scale(-1, 1) translate(-258.000000, -218.500000) "></path>
        </g>
    </g>
</svg>